<?xml version="1.0" standalone="no"?>
<!DOCTYPE svg PUBLIC "-//W3C//DTD SVG 1.1//EN" "http://www.w3.org/Graphics/SVG/1.1/DTD/svg11.dtd" >
<svg xmlns="http://www.w3.org/2000/svg">
<metadata></metadata>
<defs>
<font id="true_mediumregular" horiz-adv-x="0" >
<font-face units-per-em="2048" ascent="1638" descent="-410" />
<missing-glyph horiz-adv-x="553" />
<glyph unicode="&#xd;" horiz-adv-x="553" />
<glyph unicode=" "  horiz-adv-x="553" />
<glyph unicode="&#x09;" horiz-adv-x="553" />
<glyph unicode="&#xa0;" horiz-adv-x="553" />
<glyph unicode="!" horiz-adv-x="350" d="M100 0v150h150v-150h-150zM111 668v297h129v-297l-35 -420h-60z" />
<glyph unicode="&#x22;" horiz-adv-x="575" d="M147 616v349h93v-349h-93zM336 616v349h92v-349h-92z" />
<glyph unicode="#" horiz-adv-x="752" d="M45 279v92h145l29 202h-137v93h149l39 276h95l-41 -276h168l38 276h95l-39 -276h121v-93h-134l-28 -202h123v-92h-138l-38 -279h-93l39 279h-168l-39 -279h-94l39 279h-131zM285 371h166l28 202h-168z" />
<glyph unicode="$" horiz-adv-x="752" d="M33 295h117q6 -181 190 -209v356q-153 38 -211 90q-68 60 -68 173q0 120 80 198q79 78 199 84v90h74v-90q213 -26 266 -268h-115q-28 133 -151 158v-334l82 -21q72 -18 131 -69q82 -73 82 -183q0 -127 -81 -203q-80 -74 -214 -85v-111h-74v111q-133 12 -214 93t-93 220z M184 717q0 -66 43 -103q33 -28 113 -51v318q-156 -20 -156 -164zM414 86q174 13 174 172q0 71 -49 111q-38 29 -125 55v-338z" />
<glyph unicode="%" horiz-adv-x="1352" d="M125 684q0 274 219 274q215 0 215 -270q0 -118 -49 -188q-57 -84 -166 -84q-219 0 -219 268zM225 686q0 -194 115 -194q119 0 119 196q0 197 -115 197q-119 0 -119 -199zM254 -27l727 1004h115l-725 -1004h-117zM793 252q0 274 219 274q215 0 215 -270q0 -118 -49 -188 q-59 -80 -166 -80q-219 0 -219 264zM893 254q0 -197 115 -197q118 0 118 199q0 195 -114 195q-119 0 -119 -197z" />
<glyph unicode="&#x26;" horiz-adv-x="852" d="M45 248q0 174 225 291q-38 52 -72 108q-34 55 -34 119q0 84 58 141q58 58 159 58q97 0 164 -52q69 -51 69 -145q0 -145 -180 -250l174 -213q26 69 31 150h111q-10 -122 -66 -238l188 -217h-151l-103 121q-88 -133 -272 -133q-170 0 -248 98q-53 71 -53 162zM166 248 q0 -70 55 -116t129 -46q129 0 205 115l-221 266q-84 -47 -117 -84q-51 -56 -51 -135zM279 762q0 -52 92 -168q129 78 129 168q0 43 -30 72.5t-81 29.5q-45 0 -77.5 -26.5t-32.5 -75.5z" />
<glyph unicode="'" horiz-adv-x="375" d="M141 616v349h92v-349h-92z" />
<glyph unicode="(" horiz-adv-x="350" d="M63 365q0 344 213 622h89q-181 -281 -181 -622q0 -346 181 -629h-89q-213 325 -213 629z" />
<glyph unicode=")" horiz-adv-x="350" d="M-10 -264q176 278 176 620q0 341 -176 631h84q213 -330 213 -631q0 -343 -213 -620h-84z" />
<glyph unicode="*" horiz-adv-x="475" d="M33 801l24 65l144 -53v152h71v-152l144 53l26 -65l-145 -51l88 -123l-55 -41l-94 129l-86 -129l-62 41l88 123z" />
<glyph unicode="+" horiz-adv-x="811" d="M66 297v90h294v297h91v-297h294v-90h-294v-297h-91v297h-294z" />
<glyph unicode="," horiz-adv-x="375" d="M113 0v150h149v-136q0 -165 -149 -209v68q85 29 80 127h-80z" />
<glyph unicode="-" horiz-adv-x="526" d="M68 322v108h391v-108h-391z" />
<glyph unicode="." horiz-adv-x="375" d="M113 0v150h149v-150h-149z" />
<glyph unicode="/" horiz-adv-x="451" d="M-21 -18l396 1005h100l-401 -1005h-95z" />
<glyph unicode="0" horiz-adv-x="752" d="M57 471q0 216 47 324q72 163 271 163q200 0 272 -163q47 -108 47 -324t-47 -324q-72 -159 -272 -159q-199 0 -271 159q-47 108 -47 324zM178 471q0 -168 25 -246q45 -139 172 -139q129 0 174 139q24 79 24 246q0 166 -24 246q-45 139 -174 139q-127 0 -172 -139 q-25 -78 -25 -246z" />
<glyph unicode="1" horiz-adv-x="752" d="M117 686v92q244 0 276 180h88v-958h-114v686h-250z" />
<glyph unicode="2" horiz-adv-x="752" d="M33 0q12 154 90 250q51 64 178 141q138 85 184 135q62 67 62 158q0 76 -55 124q-54 48 -132 48q-94 0 -145 -76q-45 -68 -41 -162h-115q-8 151 76 245q84 95 234 95q128 0 214 -74q85 -73 85 -202q0 -145 -121 -250l-232 -151q-131 -86 -149 -181h491v-100h-624z" />
<glyph unicode="3" horiz-adv-x="752" d="M41 297h115q4 -96 56 -153.5t148 -57.5q85 0 146 50q61 49 61 134q0 88 -57 136q-56 49 -145 49q-14 0 -32 -1t-38 -3v96h49q39 0 72.5 10t57.5 30t38 48.5t14 66.5q0 75 -47 114.5t-123 39.5q-45 0 -79 -15.5t-56.5 -43t-33.5 -65.5t-11 -83h-115q3 71 23 128t57.5 97.5 t91.5 62t123 21.5q132 0 209 -61q84 -68 84 -195q0 -129 -133 -192v-2q174 -38 174 -232q0 -139 -98 -219q-90 -69 -232 -69q-147 0 -234 81t-85 228z" />
<glyph unicode="4" horiz-adv-x="752" d="M37 225v111l438 622h92v-632h129v-101h-129v-225h-108v225h-422zM137 326h322v469h-4z" />
<glyph unicode="5" horiz-adv-x="752" d="M47 258h115q4 -76 60 -124q57 -48 143 -48t144 58t58 167q0 97 -61 158q-60 61 -156 61q-101 0 -178 -92l-98 6l88 498h473v-100h-387l-51 -277l4 -2q59 68 178 68q136 0 219 -82q90 -89 90 -246q0 -131 -84 -221q-94 -94 -252 -94q-129 0 -213 69q-91 77 -92 201z" />
<glyph unicode="6" horiz-adv-x="752" d="M51 444q0 514 352 514q251 0 271 -245h-115q-17 143 -160 143q-219 0 -233 -362l2 -2q79 124 240 124q134 0 214 -87q80 -88 80 -224q0 -125 -69 -213q-86 -104 -252 -104q-330 0 -330 456zM188 299q0 -91 53 -153q54 -60 146 -60q88 0 143 64q50 59 50 147q0 93 -50 155 t-143 62q-95 0 -147 -61q-52 -59 -52 -154z" />
<glyph unicode="7" horiz-adv-x="752" d="M68 834v108h620v-98q-145 -145 -250 -384q-104 -238 -119 -460h-126q28 466 378 834h-503z" />
<glyph unicode="8" horiz-adv-x="752" d="M53 276q0 181 168 238q-133 55 -133 199q0 114 86 182q78 63 195 63q145 0 223 -75q67 -67 67 -170q0 -138 -133 -199q172 -51 172 -238q0 -136 -90 -212q-89 -76 -229 -76q-144 0 -232 69q-94 78 -94 219zM176 270q0 -84 56 -134q58 -50 147 -50q85 0 141 53 q55 54 55 133q0 76 -57 129q-57 54 -139 54q-88 0 -146 -52q-57 -51 -57 -133zM209 709q0 -38 12.5 -66.5t35 -48t54 -29.5t68.5 -10q35 0 64.5 10.5t50.5 30.5t33 48.5t12 64.5q0 147 -162 147q-36 0 -67 -10t-53.5 -29t-35 -46.5t-12.5 -61.5z" />
<glyph unicode="9" horiz-adv-x="752" d="M45 645q0 139 88 226t227 87q330 0 330 -458q0 -512 -334 -512q-266 0 -290 243h114q3 -33 17.5 -60t38 -46t54 -29t66.5 -10q209 0 217 369l-2 4q-73 -133 -223 -133q-144 0 -223 88q-80 89 -80 231zM168 631q0 -81 53 -143q52 -60 135 -60q88 0 142 61q55 61 55 150 q0 93 -52 154q-53 63 -145 63q-96 0 -145 -70q-43 -58 -43 -155z" />
<glyph unicode=":" horiz-adv-x="375" d="M113 0v150h149v-150h-149zM113 549v149h149v-149h-149z" />
<glyph unicode=";" horiz-adv-x="375" d="M113 0v150h149v-136q0 -165 -149 -209v68q85 29 80 127h-80zM113 549v149h149v-149h-149z" />
<glyph unicode="&#x3c;" horiz-adv-x="811" d="M61 301v82l689 311v-92l-576 -260l576 -260v-88z" />
<glyph unicode="=" horiz-adv-x="811" d="M66 160v92h679v-92h-679zM66 432v92h679v-92h-679z" />
<glyph unicode="&#x3e;" horiz-adv-x="811" d="M61 -6v88l576 260l-576 260v92l689 -311v-82z" />
<glyph unicode="?" horiz-adv-x="778" d="M61 664q-4 141 87 232t245 91q139 0 226 -72q88 -70 88 -198q0 -123 -125 -230q-66 -56 -90 -86q-41 -53 -41 -112v-53h-117v63q0 71 45 133q22 31 87 90q33 30 54 51.5t31 34.5q38 56 33 121q-6 75 -58 116.5t-133 41.5q-102 0 -160 -63q-57 -62 -57 -160h-115zM315 0 v150h156v-150h-156z" />
<glyph unicode="@" horiz-adv-x="1081" d="M57 487q0 208 147 354q149 146 355 146q192 0 325 -118q134 -117 134 -298q0 -163 -111 -284q-98 -107 -205 -107q-81 0 -88 88h-4q-75 -92 -168 -92q-84 0 -138 62q-54 63 -54 153q0 148 90 265q90 118 227 118q111 0 152 -110l31 86h86l-115 -385q-14 -50 -14 -68 q0 -43 32 -43q62 0 124 101q63 102 63 210q0 153 -113 254q-103 94 -254 94q-173 0 -291 -127t-118 -307q0 -178 122 -303q123 -125 295 -125q94 0 186 45q90 44 148 119h86q-63 -111 -178 -172t-246 -61q-214 0 -360 145q-146 146 -146 360zM352 399q0 -57 32 -94t83 -37 q85 0 149 103q62 95 62 186q0 50 -34 87q-35 38 -77 38q-91 0 -155 -96q-60 -89 -60 -187z" />
<glyph unicode="A" horiz-adv-x="877" d="M-3 0l372 965h141l377 -965h-142l-106 291h-408l-108 -291h-126zM272 399h326l-160 449h-2z" />
<glyph unicode="B" horiz-adv-x="926" d="M104 0v965h351q195 0 256 -35q114 -68 114 -201q0 -158 -143 -217v-2q182 -38 182 -234q0 -113 -73 -190q-83 -86 -220 -86h-467zM233 109h322q84 0 133 47t49 125q0 161 -211 161h-293v-333zM233 551h259q204 0 204 154q0 91 -63 126q-44 25 -141 25h-259v-305z" />
<glyph unicode="C" horiz-adv-x="977" d="M57 479q0 219 117 359q125 149 340 149q158 0 267 -82q111 -83 130 -231h-127q-18 100 -92 153q-74 54 -178 54q-162 0 -250 -121q-78 -107 -78 -271q0 -178 78 -284q86 -119 250 -119q122 0 199 80q69 74 80 199h129q-19 -184 -127 -282t-291 -98q-215 0 -336 138 q-111 135 -111 356z" />
<glyph unicode="D" horiz-adv-x="952" d="M104 0v965h332q465 0 465 -459q0 -506 -465 -506h-332zM233 109h213q117 0 197 57q129 91 129 321q0 369 -321 369h-218v-747z" />
<glyph unicode="E" horiz-adv-x="825" d="M104 0v965h668v-109h-539v-305h502v-109h-502v-333h543v-109h-672z" />
<glyph unicode="F" horiz-adv-x="776" d="M104 0v965h635v-109h-506v-305h445v-109h-445v-442h-129z" />
<glyph unicode="G" horiz-adv-x="1026" d="M55 483q0 212 115 351q127 153 348 153q151 0 264 -80q106 -74 156 -200l-119 -41q-86 215 -301 215q-166 0 -256 -127q-80 -110 -80 -271q0 -165 80 -274q90 -125 256 -125q140 0 232 96q76 84 96 221h-332v105h467v-23q0 -213 -117 -352q-128 -146 -346 -146 q-220 0 -348 146q-115 139 -115 352z" />
<glyph unicode="H" horiz-adv-x="977" d="M104 0v965h129v-414h508v414h129v-965h-129v442h-508v-442h-129z" />
<glyph unicode="I" horiz-adv-x="350" d="M111 0v965h129v-965h-129z" />
<glyph unicode="J" horiz-adv-x="545" d="M41 0v119h90q77 0 127 53q49 52 49 139v654h127v-684q0 -118 -77 -200q-77 -81 -191 -81h-125z" />
<glyph unicode="K" horiz-adv-x="901" d="M104 0v965h129v-482l490 482h166l-406 -390l422 -575h-162l-348 487l-162 -149v-338h-129z" />
<glyph unicode="L" horiz-adv-x="752" d="M104 0v965h129v-856h512v-109h-641z" />
<glyph unicode="M" horiz-adv-x="1178" d="M109 0v965h176l303 -811l305 811h176v-965h-121v803h-4l-301 -803h-108l-302 803h-4v-803h-120z" />
<glyph unicode="N" horiz-adv-x="977" d="M104 0v965h136l510 -783h2v783h120v-965h-139l-504 774h-4v-774h-121z" />
<glyph unicode="O" horiz-adv-x="1028" d="M51 483q0 211 117 351q127 153 346 153q218 0 346 -153q117 -140 117 -351t-117 -350q-127 -148 -346 -148t-346 148q-117 139 -117 350zM180 483q0 -161 78 -272q92 -125 256 -125t256 125q78 111 78 272q0 162 -78 273q-92 125 -256 125t-256 -125q-78 -111 -78 -273z " />
<glyph unicode="P" horiz-adv-x="877" d="M104 0v965h424q145 0 221 -74.5t76 -210.5t-76 -210.5t-221 -74.5h-295v-395h-129zM233 504h252q211 0 211 176t-211 176h-252v-352z" />
<glyph unicode="Q" horiz-adv-x="1028" d="M51 483q0 211 117 351q127 153 346 153q218 0 346 -153q117 -140 117 -351q0 -243 -148 -385l127 -98l-63 -77l-148 112q-98 -50 -231 -50q-219 0 -346 148q-117 139 -117 350zM180 483q0 -161 78 -272q92 -125 256 -125q74 0 133 27l-106 84l67 79l129 -104 q111 111 111 311q0 162 -78 273q-92 125 -256 125t-256 -125q-78 -111 -78 -273z" />
<glyph unicode="R" horiz-adv-x="926" d="M104 0v965h455q293 0 293 -273q0 -185 -184 -246l219 -446h-148l-192 414h-314v-414h-129zM233 520h267q225 0 225 174q0 162 -172 162h-320v-336z" />
<glyph unicode="S" horiz-adv-x="877" d="M49 317h123q0 -114 86 -176q76 -55 195 -55q245 0 245 174q0 109 -159 156l-150 38l-149 38q-160 64 -160 215q0 136 108 213q97 67 242 67q156 0 248 -72q100 -79 106 -233h-120q-21 199 -240 199q-215 0 -215 -166q0 -78 96 -117q33 -16 213 -55q142 -33 211 -80 q96 -71 96 -199q0 -141 -123 -219q-104 -60 -253 -60q-174 0 -281 74q-119 92 -119 258z" />
<glyph unicode="T" horiz-adv-x="776" d="M2 856v109h772v-15q0 -96 -110 -96h-2l-209 2v-856h-129v856h-322z" />
<glyph unicode="U" horiz-adv-x="977" d="M100 348v617h25q104 0 104 -105v-512q0 -262 267 -262q252 0 252 262v617h129v-617q0 -181 -99 -272t-282 -91q-396 0 -396 363z" />
<glyph unicode="V" horiz-adv-x="825" d="M0 965h137l277 -836h2l278 836h135l-344 -965h-145z" />
<glyph unicode="W" horiz-adv-x="1251" d="M16 965h131l189 -803h4l215 803h139l215 -803h2l197 803h127l-258 -965h-133l-221 811h-2l-224 -811h-133z" />
<glyph unicode="X" horiz-adv-x="825" d="M0 0l336 496l-318 469h154l240 -377l252 377h143l-320 -469l340 -496h-157l-258 399l-269 -399h-143z" />
<glyph unicode="Y" horiz-adv-x="877" d="M2 965h154l288 -459l283 459h145l-368 -570v-395h-129v395z" />
<glyph unicode="Z" horiz-adv-x="825" d="M31 0v109l600 747h-555v109h704v-109l-598 -747h615v-109h-766z" />
<glyph unicode="[" horiz-adv-x="350" d="M98 -261v1248h252v-90h-145v-1066h145v-92h-252z" />
<glyph unicode="\" horiz-adv-x="451" d="M-17 987h91l401 -1002h-100z" />
<glyph unicode="]" horiz-adv-x="350" d="M0 -169h145v1066h-145v90h252v-1248h-252v92z" />
<glyph unicode="^" horiz-adv-x="811" d="M68 356l294 586h87l294 -586h-94l-246 488l-239 -488h-96z" />
<glyph unicode="_" horiz-adv-x="676" d="M0 -93h676v-68h-676v68z" />
<glyph unicode="`" horiz-adv-x="301" d="M-24 987h141l116 -192h-88z" />
<glyph unicode="a" horiz-adv-x="725" d="M49 180q0 107 74 158q49 34 162 57q42 8 83 15l83 14q69 18 69 74q0 116 -155 116q-166 0 -175 -133h-114q7 234 295 234q264 0 264 -193v-358q0 -48 4 -60q6 -18 31 -18q20 0 37 6v-90q-33 -11 -84 -11q-97 0 -97 101q-95 -101 -245 -101q-232 0 -232 189zM170 188 q0 -102 135 -102q103 0 164 55q49 45 49 103v116q-32 -24 -129 -36q-111 -15 -147 -31q-72 -29 -72 -105z" />
<glyph unicode="b" horiz-adv-x="801" d="M90 0v965h115v-361h4q52 111 223 111q154 0 242 -109q80 -103 80 -258q0 -158 -80 -256q-86 -101 -240 -101q-158 0 -225 103h-4v-94h-115zM201 350q0 -112 51 -184q59 -80 170 -80q108 0 164 84q45 72 45 186q0 107 -51 179q-60 79 -164 79q-109 0 -166 -82 q-49 -70 -49 -182z" />
<glyph unicode="c" horiz-adv-x="725" d="M49 340q0 166 82 266q88 109 248 109q126 0 203 -58q86 -63 98 -182h-119q-28 139 -174 139q-217 0 -217 -274q0 -106 47 -174q56 -80 158 -80q166 0 192 170h117q-43 -265 -309 -265q-156 0 -241 94t-85 255z" />
<glyph unicode="d" horiz-adv-x="801" d="M49 352q0 155 83 259t237 104q158 0 225 -109h2v359h115v-965h-115v94h-2q-57 -103 -223 -103q-154 0 -242 103q-80 101 -80 258zM170 344q0 -105 53 -178q59 -80 164 -80q107 0 164 82q49 70 49 180q0 115 -51 187q-57 79 -170 79q-110 0 -162 -84q-47 -71 -47 -186z " />
<glyph unicode="e" horiz-adv-x="725" d="M49 350q0 161 91 262q91 103 239 103q168 0 254 -137q63 -103 63 -242v-21h-526v-7q0 -94 53 -152q58 -70 164 -70q148 0 180 137l109 -30q-61 -202 -293 -202q-162 0 -250 99q-84 97 -84 260zM170 416h401q-5 84 -60 141q-56 57 -140 57q-86 0 -141 -58 q-54 -59 -60 -140z" />
<glyph unicode="f" horiz-adv-x="399" d="M16 598v100h117v105q0 174 195 174q41 0 73 -12v-101q-24 10 -65 10q-88 0 -88 -77v-99h135v-100h-135v-598h-115v598h-117z" />
<glyph unicode="g" horiz-adv-x="776" d="M49 346q0 146 70 246q85 123 252 123q147 0 209 -117h2v100h108v-639q0 -337 -325 -337q-114 0 -191 46q-94 55 -98 161h114q4 -56 66 -88q50 -26 115 -26q211 0 211 259v45h-4q-56 -120 -218 -120q-148 0 -233 99q-78 97 -78 248zM170 360q0 -110 43 -180 q51 -86 156 -86q103 0 159 86q47 74 47 185q0 104 -45 172q-53 77 -153 77q-105 0 -158 -77q-49 -67 -49 -177z" />
<glyph unicode="h" horiz-adv-x="752" d="M86 0v965h115v-369h4q51 119 219 119q242 0 242 -256v-459h-115v473q0 66 -38.5 103.5t-104.5 37.5q-101 0 -154 -60t-53 -159v-395h-115z" />
<glyph unicode="i" horiz-adv-x="301" d="M94 0v698h115v-698h-115zM94 825v140h115v-140h-115z" />
<glyph unicode="j" horiz-adv-x="322" d="M-65 -169h29q61 0 106 50q45 49 45 119v698h114v-703q0 -125 -73 -197q-72 -73 -184 -73h-37v106zM115 825v140h114v-140h-114z" />
<glyph unicode="k" horiz-adv-x="702" d="M94 0v965h115v-572l317 305h156l-279 -254l299 -444h-147l-240 365l-106 -101v-264h-115z" />
<glyph unicode="l" horiz-adv-x="301" d="M94 0v965h115v-965h-115z" />
<glyph unicode="m" horiz-adv-x="1153" d="M86 0v698h109v-102h2q77 119 227 119q151 0 190 -119q77 119 220 119q233 0 233 -203v-512h-115v459q0 155 -135 155q-83 0 -132 -49q-50 -50 -50 -129v-436h-117v459q0 155 -131 155q-91 0 -143 -69q-43 -55 -43 -109v-436h-115z" />
<glyph unicode="n" horiz-adv-x="752" d="M86 0v698h109v-110h2q70 127 227 127q242 0 242 -256v-459h-115v473q0 66 -38.5 103.5t-104.5 37.5q-101 0 -154 -60t-53 -159v-395h-115z" />
<glyph unicode="o" horiz-adv-x="776" d="M49 348q0 162 86 260q92 107 252 107q162 0 254 -107q86 -98 86 -260q0 -160 -86 -258q-92 -99 -254 -99q-161 0 -252 99q-86 98 -86 258zM170 348q0 -121 62 -192q63 -70 155 -70q94 0 156 69q63 70 63 193t-63 194q-62 72 -156 72q-92 0 -155 -72q-62 -71 -62 -194z " />
<glyph unicode="p" horiz-adv-x="801" d="M90 -261v959h115v-94h4q52 111 223 111q154 0 242 -109q80 -103 80 -258q0 -158 -80 -256q-86 -101 -240 -101q-158 0 -225 103h-4v-355h-115zM201 350q0 -112 51 -184q59 -80 170 -80q108 0 164 84q45 72 45 186q0 107 -51 179q-60 79 -164 79q-109 0 -166 -82 q-49 -70 -49 -182z" />
<glyph unicode="q" horiz-adv-x="801" d="M49 352q0 155 83 259t237 104q158 0 225 -109h2v92h115v-959h-115v355h-2q-57 -103 -223 -103q-154 0 -242 103q-80 101 -80 258zM170 344q0 -105 53 -178q59 -80 164 -80q107 0 164 82q49 70 49 180q0 115 -51 187q-57 79 -170 79q-110 0 -162 -84q-47 -71 -47 -186z " />
<glyph unicode="r" horiz-adv-x="451" d="M82 0v698h115v-100q68 103 199 103q11 0 22 -1l33 -2v-104h-33q-81 0 -152 -80q-69 -80 -69 -158v-356h-115z" />
<glyph unicode="s" horiz-adv-x="676" d="M41 221h117q6 -135 186 -135q170 0 170 102q0 59 -72 91q-27 11 -157 40q-108 26 -156 58q-72 49 -72 139q0 98 84 152q74 47 176 47q275 0 287 -219h-115q-10 118 -161 118q-150 0 -150 -90q0 -54 76 -82q18 -7 154 -39q106 -24 157 -59q70 -49 70 -139q0 -116 -96 -174 q-77 -40 -201 -40q-286 0 -297 230z" />
<glyph unicode="t" horiz-adv-x="446" d="M12 598v100h119v211h115v-211h139v-100h-139v-334q0 -72 40 -118t99 -46h31v-100h-47q-107 0 -173 70q-65 71 -65 184v344h-119z" />
<glyph unicode="u" horiz-adv-x="752" d="M86 240v458h31q86 0 86 -90v-325q0 -91 24 -131q39 -66 152 -66q108 0 147 66q23 41 23 131v415h117v-458q0 -121 -74.5 -185t-212.5 -64q-142 0 -217.5 62.5t-75.5 186.5z" />
<glyph unicode="v" horiz-adv-x="676" d="M18 698h129l197 -581h2l191 581h120l-256 -698h-122z" />
<glyph unicode="w" horiz-adv-x="1024" d="M23 698h127l157 -571h4l140 571h127l145 -571h2l158 571h118l-223 -698h-121l-143 555h-2l-141 -555h-123z" />
<glyph unicode="x" horiz-adv-x="700" d="M12 0l262 369l-243 329h147l168 -243l174 243h137l-239 -321l270 -377h-147l-195 289l-194 -289h-140z" />
<glyph unicode="y" horiz-adv-x="676" d="M10 698h125l211 -571l197 571h123l-377 -971h-117l117 277z" />
<glyph unicode="z" horiz-adv-x="649" d="M31 0v88l420 510h-394v100h543v-77l-428 -521h446v-100h-587z" />
<glyph unicode="{" horiz-adv-x="451" d="M66 313v93q43 0 76 46q34 46 34 113v246q0 81 49 131q43 45 99 45h94v-80h-68q-65 0 -65 -116v-248q0 -82 -47 -135q-33 -36 -70 -46v-4q38 -5 70 -41q47 -52 47 -141v-238q0 -117 65 -117h68v-82h-94q-56 0 -99 45q-49 52 -49 133v239q0 69 -35 116q-32 41 -75 41z" />
<glyph unicode="|" horiz-adv-x="301" d="M104 -15v1002h93v-1002h-93z" />
<glyph unicode="}" horiz-adv-x="451" d="M33 -179h67q66 0 66 117v238q0 82 47 135q32 36 70 47v4q-36 4 -70 41q-47 50 -47 140v245q0 119 -66 119h-67v80h94q54 0 98 -45q47 -52 47 -131v-246q0 -72 34 -115q35 -44 79 -44v-93q-45 0 -79 -45q-34 -44 -34 -112v-239q0 -80 -47 -133q-44 -45 -98 -45h-94v82z " />
<glyph unicode="~" horiz-adv-x="811" d="M94 309q60 117 168 117q52 0 150 -43q123 -55 139 -55q53 0 119 104l47 -67q-80 -117 -168 -117q-55 0 -137 45q-95 51 -156 51q-66 0 -115 -102z" />
<glyph unicode="&#xa4;" horiz-adv-x="840" d="M8 164l148 145q-62 83 -62 193q0 114 62 188l-148 150l76 71l145 -145q79 59 193 59q55 0 105.5 -16t82.5 -43l150 145l71 -71l-145 -150q59 -79 59 -188q0 -114 -59 -193l145 -145l-71 -76l-150 148q-15 -13 -36 -23.5t-47 -20.5q-53 -18 -105 -18q-110 0 -193 62 l-145 -148zM197 502q0 -94 63 -164q65 -68 162 -68q92 0 158 68q63 63 63 164q0 46 -16.5 87t-45.5 72t-70 49.5t-89 18.5q-96 0 -160 -67q-65 -73 -65 -160z" />
<glyph unicode="&#xa9;" horiz-adv-x="1081" d="M33 485q0 210 149 356q151 146 361 146q208 0 357 -146t149 -356q0 -215 -149 -359t-357 -144q-211 0 -361 144q-149 144 -149 359zM125 485q0 -186 120 -310t298 -124q176 0 294 124q119 125 119 310q0 181 -120 304q-118 124 -293 124q-178 0 -298 -124 q-120 -123 -120 -304zM258 483q0 137 80 223q79 85 217 85q98 0 169 -54q71 -53 85 -151h-86q-5 28 -19.5 52.5t-36.5 41.5t-50.5 27t-61.5 10q-96 0 -151 -66q-54 -65 -54 -166q0 -98 57 -168q58 -69 152 -69q66 0 110 38t54 99h86q-21 -98 -90 -156q-68 -57 -160 -57 q-136 0 -218 88q-83 89 -83 223z" />
<glyph unicode="&#xab;" horiz-adv-x="627" d="M68 315v121l204 162v-117l-135 -106l135 -105v-116zM332 315v121l207 162v-117l-136 -106l136 -105v-116z" />
<glyph unicode="&#xac;" horiz-adv-x="758" d="M35 297v90h686v-268h-82v178h-604z" />
<glyph unicode="&#xad;" horiz-adv-x="811" d="M66 297v90h679v-90h-679z" />
<glyph unicode="&#xae;" horiz-adv-x="1081" d="M33 485q0 210 149 356q151 146 361 146q208 0 357 -146t149 -356q0 -215 -149 -359t-357 -144q-211 0 -361 144q-149 144 -149 359zM125 485q0 -186 120 -310t298 -124q176 0 294 124q119 125 119 310q0 180 -119 304q-118 124 -294 124q-178 0 -298 -123 q-120 -122 -120 -305zM344 188v590h229q207 0 207 -168q0 -143 -155 -161l168 -261h-99l-159 254h-99v-254h-92zM436 516h96q76 0 109 14q47 21 47 84q0 91 -129 91h-123v-189z" />
<glyph unicode="&#xb0;" horiz-adv-x="541" d="M66 713q0 40 15.5 77t42.5 64.5t63.5 44t78.5 16.5q43 0 80.5 -16t65 -43t43.5 -64t16 -79t-16 -79t-43.5 -64.5t-65 -43.5t-80.5 -16q-41 0 -77 15.5t-63.5 43t-43.5 64.5t-16 80zM121 713q0 -30 11.5 -57t31 -47t46 -32t56.5 -12q61 0 105 43q45 46 45 105 q0 30 -12 56.5t-32.5 46t-47.5 31t-58 11.5t-57.5 -11t-46 -30.5t-30.5 -46t-11 -57.5z" />
<glyph unicode="&#xb6;" horiz-adv-x="727" d="M0 858q0 153 94 229q90 66 248 66h389v-41h-102v-1352h-62v1352h-145v-1352h-55v801q-168 0 -263 62q-104 74 -104 235z" />
<glyph unicode="&#xb7;" horiz-adv-x="338" d="M96 449q0 30 20.5 50.5t53.5 20.5q31 0 51.5 -21.5t20.5 -49.5q0 -31 -21.5 -52.5t-50.5 -21.5q-33 0 -53.5 20.5t-20.5 53.5z" />
<glyph unicode="&#xbb;" horiz-adv-x="627" d="M88 154v116l135 105l-135 106v117l205 -162v-121zM352 154v116l135 105l-135 106v117l207 -162v-121z" />
<glyph unicode="&#xd7;" horiz-adv-x="811" d="M96 98l246 246l-244 242l64 65l246 -243l241 243l66 -65l-244 -242l246 -246l-66 -65l-243 246l-246 -246z" />
<glyph unicode="&#xf7;" horiz-adv-x="811" d="M66 297v90h679v-90h-679zM319 63q0 18 7 33.5t19 27.5t27.5 19t33.5 7q17 0 32.5 -7t27.5 -19t19 -27.5t7 -33.5q0 -16 -7 -30.5t-19 -26t-27 -18t-31 -6.5q-18 0 -34 6.5t-28 17.5t-19.5 25.5t-7.5 31.5zM319 621q0 17 7 32.5t19 27.5t27.5 19t33.5 7q17 0 32.5 -7 t27.5 -19t19 -27.5t7 -32.5q0 -32 -26 -60q-26 -26 -58 -26q-18 0 -34 7t-28 18.5t-19.5 27t-7.5 33.5z" />
<glyph unicode="&#xe00;" horiz-adv-x="205" />
<glyph unicode="&#xe01;" horiz-adv-x="817" d="M72 0v559q0 113 84 191q92 86 250 86t253 -86q86 -78 86 -191v-559h-133v535q0 94 -63 145q-56 45 -143 45q-88 0 -140 -45q-61 -51 -61 -145v-535h-133z" />
<glyph unicode="&#xe02;" horiz-adv-x="758" d="M72 244v225q0 74 65 122q66 48 66 73q0 53 -101 53h-30v102h100q160 0 166 -127q4 -82 -65 -136q-68 -54 -68 -103v-195q0 -164 174 -164t174 164v561h133v-575q0 -124 -79.5 -191t-227.5 -67q-149 0 -228 67t-79 191z" />
<glyph unicode="&#xe03;" horiz-adv-x="758" d="M51 700v119h74l57 -41l60 41h88v-96q0 -83 -63 -135q-62 -53 -62 -113v-217q0 -164 174 -164t174 164v561h133v-575q0 -124 -79.5 -191t-227.5 -67q-149 0 -228 67t-79 191v258q0 67 62 114q63 48 63 80v4h-146z" />
<glyph unicode="&#xe04;" horiz-adv-x="817" d="M72 0v565q0 112 89 192q88 79 247 79q160 0 251 -82q86 -77 86 -189v-565h-133v547q0 87 -63 137q-56 41 -141 41q-84 0 -140 -41q-63 -50 -63 -137v-88h192v-119h-192v-340h-133z" />
<glyph unicode="&#xe05;" horiz-adv-x="817" d="M72 0v604q0 93 63 155q65 62 154 77l119 -93l120 93q89 -15 153 -77q64 -61 64 -155v-604h-133v600q0 77 -71 109l-133 -99l-132 99q-71 -32 -71 -109v-141h192v-119h-192v-340h-133z" />
<glyph unicode="&#xe06;" horiz-adv-x="817" d="M51 700v119h74l57 -41l60 41h88v-96q0 -83 -63 -135q-62 -53 -62 -113v-166q0 -81 67 -152q68 -71 162 -71q178 0 178 201v532h133v-563q0 -113 -63 -186q-71 -80 -195 -80q-179 0 -282 121v-111h-133v502q0 67 62 114q63 48 63 80v4h-146z" />
<glyph unicode="&#xe07;" horiz-adv-x="760" d="M31 819h141l102 -708h115q186 0 186 329q0 276 -206 262v117h65q275 0 275 -375q0 -444 -273 -444h-286z" />
<glyph unicode="&#xe08;" horiz-adv-x="756" d="M16 604q21 100 105 162q91 70 233 70q174 0 267 -115q85 -107 84 -291q-5 -205 -83.5 -317.5t-222.5 -112.5h-245l-41 330q-9 69 -60 69h-22v107h121q73 0 81 -72l41 -323h95q77 0 133 69q69 85 69 250q0 149 -67 225q-61 70 -164 70q-141 0 -180 -121h-144z" />
<glyph unicode="&#xe09;" horiz-adv-x="801" d="M31 399v107h102q76 0 76 -74v-164q0 -182 168 -182q94 0 160 74q59 68 59 149v217q0 201 -215 201q-172 0 -203 -123h-141q19 108 114 170t236 62q155 0 249 -77q93 -77 93 -198v-561h-133v111q-103 -121 -272 -121q-248 0 -248 248v114q0 47 -33 47h-12z" />
<glyph unicode="&#xe0a;" horiz-adv-x="750" d="M72 0v819h133v-713h112q240 0 240 207q0 102 -52.5 156.5t-142.5 54.5v97q84 0 138 45q61 52 57 153h141q8 -84 -36 -149q-49 -71 -146 -97v-2q182 -68 182 -276q0 -151 -94 -227q-85 -72 -233 -70z" />
<glyph unicode="&#xe0b;" horiz-adv-x="750" d="M51 700v119h74l57 -41l60 41h88v-96q0 -83 -63 -135q-62 -53 -62 -113v-369h112q240 0 240 207q0 102 -52.5 156.5t-142.5 54.5v97q84 0 138 45q61 52 57 153h141q8 -84 -36 -149q-49 -71 -146 -97v-2q182 -68 182 -276q0 -151 -94 -227q-85 -72 -233 -70l-299 2v502 q0 67 62 114q63 48 63 80v4h-146z" />
<glyph unicode="&#xe0c;" horiz-adv-x="1329" d="M57 600q26 101 113 166q95 70 236 70q164 0 258 -80q81 -72 81 -189v-286q0 -89 58 -138t147 -49q174 0 174 191v534h133v-569q0 -123 -73 -192q-73 -68 -189 -68q-166 0 -250 100v-90h-133v547q0 84 -60 131q-61 47 -146 47q-70 0 -126 -32q-55 -31 -73 -81l100 -65 q-40 -16 -71 -49q-31 -32 -31 -66v-317h123v-115h-256v420q0 18 7.5 36.5t20 34t29.5 28t35 20.5z" />
<glyph unicode="&#xe0d;" horiz-adv-x="1309" d="M57 600q26 101 113 166q95 70 236 70q164 0 258 -80q81 -72 81 -189v-297q0 -182 164 -182q74 0 134 57q61 58 61 146v528h133v-756q0 -284 -324 -284h-301v117h293q199 0 199 153v31q-95 -92 -244 -92q-108 0 -178 60q-70 61 -70 175v324q0 84 -60 131q-61 47 -146 47 q-70 0 -126 -32q-55 -31 -73 -81l100 -65q-40 -16 -71 -49q-31 -32 -31 -66v-317h123v-115h-256v420q0 18 7.5 36.5t20 34t29.5 28t35 20.5z" />
<glyph unicode="&#xe0e;" horiz-adv-x="827" d="M0 0v115h82v305q0 18 7.5 36.5t20 34t29.5 28t35 20.5l-106 61q24 100 112 166q95 70 236 70q166 0 258 -80q82 -72 82 -189v-841h-269l-100 73l-98 -73h-207v110h178l127 88l127 -88h109v711q0 85 -61 131q-61 47 -146 47q-35 0 -67 -8t-58 -23t-45.5 -36t-28.5 -46 l100 -65q-40 -16 -70 -49q-32 -34 -32 -66v-432h-215z" />
<glyph unicode="&#xe0f;" horiz-adv-x="827" d="M0 0v115h82v305q0 18 7.5 36.5t20 34t29.5 28t35 20.5l-106 61q24 100 112 166q95 70 236 70q166 0 258 -80q82 -72 82 -189v-841h-248l-100 73l-99 -73h-227v192h129v-82h70l127 88l127 -88h88v711q0 85 -61 131q-61 47 -146 47q-35 0 -67 -8t-58 -23t-45.5 -36 t-28.5 -46l100 -65q-40 -16 -70 -49q-32 -34 -32 -66v-432h-215z" />
<glyph unicode="&#xe10;" horiz-adv-x="756" d="M16 604q21 100 105 162q91 70 233 70q84 0 144 -25q35 27 39 70h161q-17 -89 -112 -123q123 -111 119 -328q-5 -205 -83.5 -317.5t-222.5 -112.5h-245l-41 330q-9 69 -60 69h-22v107h121q73 0 81 -72l41 -323h95q77 0 133 69q69 85 69 250q0 149 -67 225q-61 70 -164 70 q-141 0 -180 -121h-144zM72 -164h157l127 88l127 -88h72v80h133v-190h-231l-101 73l-98 -73h-186v110z" />
<glyph unicode="&#xe11;" horiz-adv-x="815" d="M51 700v119h74l57 -41l60 41h88v-96q0 -83 -63 -135q-62 -53 -62 -113v-278l346 622h74q118 0 118 -123v-696h-133v684l-381 -684h-157v502q0 67 62 114q63 48 63 80v4h-146z" />
<glyph unicode="&#xe12;" horiz-adv-x="1356" d="M51 420q0 187 107 305q100 109 248 100l112 -98l107 92h147v-538q0 -89 58 -138t147 -49q174 0 174 191v534h133v-569q0 -123 -73 -192q-73 -68 -189 -68q-166 0 -250 100v-90h-133v700l-121 -112l-137 119q-57 5 -119 -66q-76 -83 -76 -221q0 -155 74 -238 q61 -67 152 -67q24 0 47 6v-121q-17 -2 -33.5 -3t-32.5 -1q-155 0 -249 115q-93 115 -93 309z" />
<glyph unicode="&#xe13;" horiz-adv-x="1329" d="M57 600q26 101 113 166q95 70 236 70q164 0 258 -80q81 -72 81 -189v-282q0 -191 175 -191q88 0 146 49t58 138v538h133v-819h-133v90q-84 -100 -250 -100q-115 0 -189 68q-73 69 -73 192v297q0 84 -60 131q-61 47 -146 47q-70 0 -126 -32q-55 -31 -73 -81l100 -65 q-40 -16 -71 -49q-31 -32 -31 -66v-317h123v-115h-256v420q0 18 7.5 36.5t20 34t29.5 28t35 20.5z" />
<glyph unicode="&#xe14;" horiz-adv-x="829" d="M51 410q0 173 101 288q108 124 288 123l318 -2v-819h-133v705l-154 2q-123 1 -199 -72q-86 -80 -86 -236q0 -139 72 -217q61 -67 150 -67q25 0 51 6v-121q-38 -6 -74 -6q-146 0 -240 111q-94 112 -94 305z" />
<glyph unicode="&#xe15;" horiz-adv-x="844" d="M51 420q0 187 107 305q100 109 248 100l112 -98l107 92h147v-819h-133v700l-121 -112l-137 119q-57 5 -119 -66q-76 -83 -76 -221q0 -155 74 -238q61 -67 152 -67q24 0 47 6v-121q-17 -2 -33.5 -3t-32.5 -1q-155 0 -249 115q-93 115 -93 309z" />
<glyph unicode="&#xe16;" horiz-adv-x="817" d="M57 600q26 101 113 166q95 70 236 70q164 0 258 -80q81 -72 81 -189v-567h-133v547q0 84 -60 131q-61 47 -146 47q-70 0 -126 -32q-55 -31 -73 -81l100 -65q-40 -16 -71 -49q-31 -32 -31 -66v-317h123v-115h-256v420q0 18 7.5 36.5t20 34t29.5 28t35 20.5z" />
<glyph unicode="&#xe17;" horiz-adv-x="817" d="M72 0v819h133v-110q90 122 264 122q132 0 209 -81q67 -73 67 -187v-563h-133v532q0 201 -178 201q-93 0 -164 -80q-65 -71 -65 -153v-500h-133z" />
<glyph unicode="&#xe18;" horiz-adv-x="793" d="M53 600q0 98 89 167q88 69 241 69q167 0 262 -72q82 -66 82 -166h-133q0 58 -70 92q-60 29 -139 29q-88 0 -143 -34q-54 -35 -54 -83q0 -61 142 -88q236 -46 262 -57q141 -51 141 -170v-287h-672v367h134v-248h405v139q0 79 -141 111l-131 27l-133 28q-142 49 -142 176z " />
<glyph unicode="&#xe19;" horiz-adv-x="817" d="M72 256v563h51q82 0 82 -90v-442q0 -201 178 -201q93 0 161 71q68 73 68 152v510h133v-819h-133v111q-103 -121 -282 -121q-124 0 -195 80q-63 73 -63 186z" />
<glyph unicode="&#xe1a;" horiz-adv-x="817" d="M72 254v565h51q82 0 82 -90v-457q0 -88 63 -137q56 -41 140 -41q85 0 141 41q63 49 63 137v547h133v-565q0 -113 -86 -188q-92 -80 -251 -80q-158 0 -250 80q-86 75 -86 188z" />
<glyph unicode="&#xe1b;" horiz-adv-x="817" d="M72 254v565h51q82 0 82 -90v-457q0 -88 63 -137q56 -41 140 -41q85 0 141 41q63 49 63 137v752h133v-770q0 -113 -86 -188q-92 -80 -251 -80q-158 0 -250 80q-86 75 -86 188z" />
<glyph unicode="&#xe1c;" horiz-adv-x="954" d="M29 819h231v-98h-86l78 -535h4l172 633h102l172 -633h5l94 633h129l-127 -819h-160l-162 606h-4l-162 -606h-159z" />
<glyph unicode="&#xe1d;" horiz-adv-x="954" d="M29 819h231v-98h-86l78 -535h4l172 633h102l172 -633h5l129 854h129l-162 -1040h-160l-162 606h-4l-162 -606h-159z" />
<glyph unicode="&#xe1e;" horiz-adv-x="954" d="M29 819h131l92 -633h4l172 633h102l172 -633h5l94 633h129l-127 -819h-160l-162 606h-4l-162 -606h-159z" />
<glyph unicode="&#xe1f;" horiz-adv-x="954" d="M29 819h131l92 -633h4l172 633h102l172 -633h5l127 838h129l-160 -1024h-160l-162 606h-4l-162 -606h-159z" />
<glyph unicode="&#xe20;" horiz-adv-x="827" d="M0 0v115h82v305q0 18 7.5 36.5t20 34t29.5 28t35 20.5l-106 61q24 100 112 166q95 70 236 70q166 0 258 -80q82 -72 82 -189v-567h-133v547q0 85 -61 131q-61 47 -146 47q-35 0 -67 -8t-58 -23t-45.5 -36t-28.5 -46l100 -65q-40 -16 -70 -49q-32 -34 -32 -66v-432h-215z " />
<glyph unicode="&#xe21;" horiz-adv-x="817" d="M72 0v819h51q82 0 82 -90v-420q0 -81 67 -152q68 -71 162 -71q178 0 178 201v532h133v-563q0 -113 -63 -186q-71 -80 -195 -80q-179 0 -282 121v-111h-133z" />
<glyph unicode="&#xe22;" horiz-adv-x="809" d="M41 231q0 40 12 75.5t34 63.5t52.5 47.5t67.5 28.5v5q-144 30 -144 178q0 82 60 138q61 55 158 54l106 -2v-114l-31 2q-67 4 -110 -23t-43 -78q0 -106 184 -102v-115q-81 4 -142 -35q-59 -39 -59 -106q0 -139 211 -135l207 4v702h133v-819l-426 -2q-134 -2 -205 65 q-65 65 -65 168z" />
<glyph unicode="&#xe23;" horiz-adv-x="770" d="M41 256h139q15 -164 213 -164q82 0 138 41q57 40 57 117q0 94 -139 121l-130 20l-129 21q-139 40 -139 172q0 111 90 182q89 70 228 70q149 0 244 -68q96 -67 108 -184h-135q-14 71 -78 110q-57 33 -135 33q-77 0 -129 -37q-60 -39 -60 -98q0 -68 140 -86 q212 -27 258 -41q139 -52 139 -209q0 -135 -96 -207q-86 -63 -238 -63q-155 0 -246 65q-96 70 -100 205z" />
<glyph unicode="&#xe24;" horiz-adv-x="817" d="M57 600q26 101 113 166q95 70 236 70q164 0 258 -80q81 -72 81 -189v-811h-133v791q0 84 -60 131q-61 47 -146 47q-70 0 -126 -32q-55 -31 -73 -81l100 -65q-40 -16 -71 -49q-31 -32 -31 -66v-317h123v-115h-256v420q0 18 7.5 36.5t20 34t29.5 28t35 20.5z" />
<glyph unicode="&#xe25;" horiz-adv-x="811" d="M51 262q0 126 93 212q94 85 235 85q84 0 156 -27q52 -19 71 -40v73q0 78 -59 119t-141 41q-169 0 -201 -131h-139q10 102 103 172q92 70 232 70q162 0 250 -70t88 -184v-582h-133v342q-17 35 -67 66q-65 36 -138 36q-94 0 -157 -51q-62 -51 -62 -131q0 -77 51 -117 q46 -39 117 -39q31 0 64 9v-115q-23 -4 -44.5 -6t-41.5 -2q-122 0 -195 61q-82 72 -82 209z" />
<glyph unicode="&#xe26;" horiz-adv-x="827" d="M0 0v115h82v305q0 18 7.5 36.5t20 34t29.5 28t35 20.5l-106 61q24 100 112 166q95 70 236 70q166 0 258 -80q82 -72 82 -189v-811h-133v791q0 85 -61 131q-61 47 -146 47q-35 0 -67 -8t-58 -23t-45.5 -36t-28.5 -46l100 -65q-40 -16 -70 -49q-32 -34 -32 -66v-432h-215z " />
<glyph unicode="&#xe27;" horiz-adv-x="772" d="M41 240h145q15 -56 65 -94q49 -37 116 -37q211 0 211 301t-211 301q-66 0 -116 -38t-65 -93h-145q12 109 103 182q92 74 227 74q350 0 350 -426q0 -424 -350 -424q-136 0 -227 72q-91 73 -103 182z" />
<glyph unicode="&#xe28;" horiz-adv-x="817" d="M72 0v565q0 112 89 192q88 79 247 79q89 0 155 -25q35 27 39 70h162q-13 -77 -109 -123q90 -74 90 -193v-565h-133v547q0 87 -63 137q-56 41 -141 41q-84 0 -140 -41q-63 -50 -63 -137v-88h192v-119h-192v-340h-133z" />
<glyph unicode="&#xe29;" horiz-adv-x="817" d="M72 254v565h133v-547q0 -88 63 -137q56 -41 140 -41q85 0 141 41q63 49 63 137v148q-24 -82 -108 -82q-45 0 -79 34t-34 79q0 48 34 79q34 33 79 33q84 0 108 -84v340h133v-565q0 -113 -86 -188q-92 -80 -251 -80q-158 0 -250 80q-86 75 -86 188z" />
<glyph unicode="&#xe2a;" horiz-adv-x="811" d="M51 262q0 126 93 212q94 85 235 85q84 0 156 -27q52 -19 71 -40v73q0 78 -59 119t-141 41q-169 0 -201 -131h-139q10 102 103 172q92 70 232 70q98 0 166 -25q35 27 39 70h162q-13 -84 -106 -123q77 -68 77 -176v-582h-133v342q-17 35 -67 66q-65 36 -138 36 q-94 0 -157 -51q-62 -51 -62 -131q0 -77 51 -117q46 -39 117 -39q31 0 64 9v-115q-23 -4 -44.5 -6t-41.5 -2q-122 0 -195 61q-82 72 -82 209z" />
<glyph unicode="&#xe2b;" horiz-adv-x="817" d="M72 0v819h133v-229q95 95 215 115h-103v114h428v-114h-184q184 -28 184 -234v-471h-133v422q0 186 -145 186q-91 0 -176 -81q-86 -81 -86 -158v-369h-133z" />
<glyph unicode="&#xe2c;" horiz-adv-x="954" d="M29 819h131l92 -633h4l172 633h102l172 -633h5l67 451q1 10 1.5 19.5t0.5 17.5q0 87 -96 104v82q138 16 149 139q1 8 1.5 14.5t0.5 10.5h132l-7 -41q-19 -142 -131 -162v-4q84 -23 84 -119q0 -6 -0.5 -12.5t-1.5 -13.5l-104 -672h-160l-162 606h-4l-162 -606h-159z" />
<glyph unicode="&#xe2d;" horiz-adv-x="899" d="M51 412q0 10 0.5 21t1.5 24q2 26 381 26v-110h-237q11 -137 88 -207q68 -62 164 -62q106 0 176 70q82 82 82 238t-82 235q-71 68 -176 68q-171 0 -232 -160l-135 39q89 242 367 242q184 0 291 -116q108 -116 108 -308q0 -196 -108 -311q-106 -115 -291 -115 q-183 0 -291 115q-107 116 -107 311z" />
<glyph unicode="&#xe2e;" horiz-adv-x="899" d="M51 412q0 10 0.5 21t1.5 24q2 26 381 26v-110h-237q11 -137 88 -207q68 -62 164 -62q106 0 176 70q82 82 82 238t-82 235q-71 68 -176 68q-171 0 -232 -160l-135 39q89 242 367 242q86 0 161 -29q34 28 39 74h162q-13 -82 -113 -123q150 -111 150 -346q0 -196 -108 -311 q-106 -115 -291 -115q-183 0 -291 115q-107 116 -107 311z" />
<glyph unicode="&#xe2f;" horiz-adv-x="762" d="M51 676q0 65 41 106t103 39l75 -2v-92h-20q-64 0 -64 -55q0 -76 113 -76q83 0 160 59q84 67 96 164h135v-819h-133v631q-92 -131 -295 -131q-88 0 -150 47q-61 46 -61 129z" />
<glyph unicode="&#xe30;" horiz-adv-x="487" d="M72 102v187h133v-82h211v-105h-344zM72 530v187h133v-82h211v-105h-344z" />
<glyph unicode="&#xe31;" d="M-416 922v188h133v-76h465v-112h-598z" />
<glyph unicode="&#xe32;" horiz-adv-x="477" d="M31 696v123h90q285 0 285 -327v-492h-134v469q0 227 -180 227h-61z" />
<glyph unicode="&#xe33;" horiz-adv-x="477" d="M-234 1026q0 39 28.5 66.5t76.5 27.5t75 -27.5t27 -66.5t-27 -66.5t-75 -27.5t-76.5 27.5t-28.5 66.5zM31 696v123h90q285 0 285 -327v-492h-134v469q0 227 -180 227h-61z" />
<glyph unicode="&#xe34;" d="M-723 922v112h659v-24q0 -88 -88 -88h-571z" />
<glyph unicode="&#xe35;" d="M-723 922v112h526v103h133v-215h-659z" />
<glyph unicode="&#xe36;" d="M-723 922v112h471q4 99 123 99t119 -107q0 -43 -32 -73.5t-87 -30.5h-594z" />
<glyph unicode="&#xe37;" d="M-723 922v112h332v103h133v-103h61v103h133v-215h-659z" />
<glyph unicode="&#xe38;" d="M-297 -53h233v-267h-133v150h-100v117z" />
<glyph unicode="&#xe39;" d="M-486 -53h177v-103q0 -49 55 -49q57 0 57 49v103h133v-103q0 -41 -10.5 -68.5t-33.5 -44t-59 -23.5t-87 -7q-108 0 -149 32q-40 31 -40 117h-43v97z" />
<glyph unicode="&#xe3a;" d="M-227 -144q0 39 27 65t69 26t69 -26t27 -65q0 -18 -7.5 -34.5t-20 -28.5t-30 -19.5t-38.5 -7.5t-38.5 7.5t-30 19.5t-20 28.5t-7.5 34.5z" />
<glyph unicode="&#xe3f;" horiz-adv-x="926" d="M104 0v965h312v112h73v-112q163 0 222 -35q114 -71 114 -201q0 -158 -143 -217v-2q182 -38 182 -234q0 -113 -73 -190q-83 -86 -220 -86h-82v-129h-73v129h-312zM233 109h183v333h-183v-333zM233 551h183v305h-183v-305zM489 109h66q84 0 133 47t49 125q0 161 -211 161 h-37v-333zM489 551h3q204 0 204 154q0 91 -63 126q-44 25 -141 25h-3v-305z" />
<glyph unicode="&#xe40;" horiz-adv-x="358" d="M113 0v819h133v-819h-133z" />
<glyph unicode="&#xe41;" horiz-adv-x="594" d="M113 0v819h133v-819h-133zM348 0v819h133v-819h-133z" />
<glyph unicode="&#xe42;" horiz-adv-x="399" d="M57 1090q0 129 160 129q43 0 104 -11q30 -5 57 -7.5t52 -2.5q61 0 100 10v-110q-31 -11 -84 -11q-23 0 -52.5 2.5t-66.5 7.5l-60 8q-23 3 -34 3q-43 0 -43 -27q0 -11 38 -54t38 -95v-932h-133v903q0 47 -38 94t-38 93z" />
<glyph unicode="&#xe43;" horiz-adv-x="399" d="M-91 1073v29q0 168 195 168h58q193 0 198 -140q2 -72 -46 -118q-48 -47 -48 -92v-920h-133v936q0 55 51 97q52 42 52 77q0 64 -99 64h-6q-98 0 -98 -87v-14h-124z" />
<glyph unicode="&#xe44;" horiz-adv-x="399" d="M-124 1100v110q39 -10 100 -10q36 0 96 9q59 10 100 10q170 0 170 -129q0 -48 -38 -95t-38 -92v-903h-133v932q0 44 38 84t38 57q0 33 -55 33q-11 0 -32.5 -2t-55.5 -6q-33 -4 -59.5 -6t-46.5 -2q-54 0 -84 10z" />
<glyph unicode="&#xe45;" horiz-adv-x="539" d="M31 696v123h135q147 0 227 -96q74 -86 74 -231v-730h-133v707q0 51 -13.5 93t-39.5 71.5t-64 46t-88 16.5h-98z" />
<glyph unicode="&#xe46;" horiz-adv-x="772" d="M51 612q0 207 191 207h59l115 -110l121 110h163v-1057h-133v947l-159 -152l-140 141q-82 9 -82 -90q0 -82 78 -82q16 0 27 4v-110q-17 -2 -31.5 -3t-28.5 -1q-180 0 -180 196z" />
<glyph unicode="&#xe47;" d="M-668 922v100q0 176 223 176h342v-94h-344q-90 0 -90 -62v-24h97l104 61l104 -61h129v-96h-145l-88 59l-92 -59h-240z" />
<glyph unicode="&#xe48;" d="M-197 1188v205h133v-205h-133z" />
<glyph unicode="&#xe49;" d="M-350 1307v92h86q96 0 96 -82v-29h252v-100h-381v88q0 31 -31 31h-22z" />
<glyph unicode="&#xe4a;" d="M-389 1188v90q0 121 137 121h27l71 -47l66 47h26q128 0 128 -111v-12h102v-88h-215v88q0 21 -27 29l-80 -64l-90 64q-26 -8 -26 -27v-90h-119z" />
<glyph unicode="&#xe4b;" d="M-285 1276v90h94v90h121v-90h88v-90h-88v-88h-121v88h-94z" />
<glyph unicode="&#xe4c;" d="M-258 1116v55q0 132 147 132h111v-101h-82q-51 0 -51 -45v-41h-125z" />
<glyph unicode="&#xe4d;" d="M-234 1026q0 39 28.5 66.5t76.5 27.5t75 -27.5t27 -66.5t-27 -66.5t-75 -27.5t-76.5 27.5t-28.5 66.5z" />
<glyph unicode="&#xe4e;" d="M-448 1133q0 42 24 75.5t66 53.5q34 21 82 24q-43 21 -43 74q0 21 9.5 42.5t26.5 41t40.5 35.5t50.5 26q54 23 117.5 28t129.5 5h25v-100q-26 2 -46 3t-34 1q-38 0 -77.5 -5t-68.5 -16q-29 -10 -45.5 -26t-16.5 -37q0 -29 29 -35t92 -6v-94q-20 2 -35.5 3t-28.5 1 q-40 0 -74 -6t-59.5 -16.5t-40 -26t-14.5 -33.5q0 -29 49 -29q31 0 58.5 9.5t58.5 23.5l49 -82q-35 -19 -80 -33t-90 -14q-6 2 -9 2h-7h-11q-57 6 -92 36t-35 75z" />
<glyph unicode="&#xe4f;" horiz-adv-x="983" d="M72 410q0 174 122 296q123 123 298 123q174 0 296 -123q123 -122 123 -296q0 -175 -123 -293q-122 -119 -296 -119t-298 119q-122 119 -122 293zM133 410q0 -148 105 -254q106 -105 254 -105q147 0 252 105q106 106 106 254q0 147 -106 252q-105 106 -252 106 q-148 0 -254 -106q-105 -105 -105 -252zM236 410q0 105 74 181q75 75 182 75q106 0 181 -75t75 -181q0 -107 -75 -182q-76 -74 -181 -74q-106 0 -182 74q-74 76 -74 182z" />
<glyph unicode="&#xe50;" horiz-adv-x="764" d="M51 309q0 140 85 228t245 88t250 -90q84 -86 84 -226q0 -142 -84 -227q-90 -84 -250 -84t-248 84q-82 85 -82 227zM190 309q0 -92 51 -149q53 -56 140 -56q88 0 141 56q53 58 53 149q0 89 -53 145t-141 56q-44 0 -79.5 -14t-60 -40.5t-38 -63.5t-13.5 -83z" />
<glyph unicode="&#xe51;" horiz-adv-x="764" d="M51 381q0 103 88 173q89 71 228 71q163 0 255 -86q93 -85 91 -232q-4 -151 -113 -233q-107 -81 -285 -86q-112 -1 -209 12l-22 111q109 -31 211 -25q132 7 209 72q69 58 69 151q0 195 -206 195q-79 0 -128 -36t-49 -87q0 -94 119 -94q23 0 43 4v-113l-30 -4 q-14 -2 -26.5 -3t-25.5 -1q-97 0 -153 49q-66 55 -66 162z" />
<glyph unicode="&#xe52;" horiz-adv-x="961" d="M0 768l115 61q88 -43 88 -147v-571h557v391l-129 -119l-135 111q-78 0 -78 -103q0 -90 104 -82v-102l-12 -2q-38 -6 -66 -6q-155 0 -159 178q-6 225 178 225h63l101 -84l98 84h164v-602h-817v641q0 86 -72 127z" />
<glyph unicode="&#xe53;" horiz-adv-x="780" d="M51 297q0 78 15.5 138.5t44 101.5t68 62.5t87.5 21.5h45l119 -93l119 86h156v-614h-136v496l-139 -111l-135 113q-35 2 -62 -37q-38 -53 -38 -162q0 -117 45 -156q32 -30 110 -24v-119h-49q-250 -6 -250 297z" />
<glyph unicode="&#xe54;" horiz-adv-x="809" d="M51 283q0 72 22.5 129t64.5 96.5t103.5 60.5t139.5 21h240v229h135v-338h-314q-252 0 -252 -190q0 -195 281 -180q-84 19 -84 100q0 45 33 75.5t84 30.5t84 -30.5t33 -75.5q0 -81 -82 -100h198v-111h-370q-142 0 -224 66q-92 74 -92 217z" />
<glyph unicode="&#xe55;" horiz-adv-x="819" d="M51 283q0 132 72.5 211t204.5 94q-58 28 -58 94q0 47 40 80t98 33q56 0 97 -33q40 -33 40 -80q0 -60 -53 -92h149v229h135v-338h-334q-252 0 -252 -190q0 -195 281 -180q-84 19 -84 100q0 45 33 75.5t84 30.5t84 -30.5t33 -75.5q0 -81 -82 -100h198v-111h-370 q-142 0 -224 66q-92 74 -92 217z" />
<glyph unicode="&#xe56;" horiz-adv-x="762" d="M0 768l115 61q88 -31 88 -133v-188q22 39 80 67q60 29 131 29q299 0 299 -305q0 -301 -332 -301q-298 0 -305 219h139q10 -117 172 -117q186 0 186 199t-186 199q-64 0 -107 -30q-45 -31 -55 -65h-153v250q0 80 -72 115z" />
<glyph unicode="&#xe57;" horiz-adv-x="1034" d="M51 297q0 78 15.5 138.5t44 101.5t68 62.5t87.5 21.5h45l119 -93l119 86h156v-503q131 0 131 147v416q0 99 92 155l100 -61q-65 -53 -65 -129v-430q0 -209 -236 -209h-158v496l-139 -111l-135 113q-35 2 -62 -37q-38 -53 -38 -162q0 -117 45 -156q32 -30 110 -24v-119 h-49q-250 -6 -250 297z" />
<glyph unicode="&#xe58;" horiz-adv-x="776" d="M51 297q0 293 287 293h231v229h136v-338h-308q-56 0 -95.5 -10.5t-64 -32.5t-36 -57t-11.5 -84q0 -157 76 -176l146 139l157 -149v151h136v-262h-173l-122 127l-121 -127h-64q-76 0 -125 78q-49 77 -49 219z" />
<glyph unicode="&#xe59;" horiz-adv-x="881" d="M51 293q0 297 240 297h153l64 -152l35 92q22 60 92 60h59v121q0 87 82 118l109 -69q-54 -35 -54 -98v-183h-145q-36 0 -53 -53l-29 -94q-26 -87 -4 -142l74 -190h-135l-185 479q-85 4 -121 -28q-43 -40 -43 -156q0 -111 41 -150q34 -34 119 -26v-119h-49q-142 -2 -201 74 q-49 68 -49 219z" />
<glyph unicode="&#xe5a;" horiz-adv-x="1036" d="M61 688q0 28 11.5 53.5t32 45t48.5 31t62 11.5q69 0 111.5 -37.5t42.5 -103.5q0 -39 -23 -74q44 6 83 23t70 43.5t52.5 61.5t30.5 77h51q35 0 51 -16q18 -12 18 -51v-752h-118v616q-26 -23 -59.5 -43.5t-71.5 -37.5q-81 -29 -162 -29q-49 0 -91 13t-73 37t-48.5 57.5 t-17.5 74.5zM152 688q0 -29 15.5 -42.5t47.5 -18.5q64 0 64 61q0 25 -17.5 43.5t-46.5 18.5q-63 0 -63 -62zM805 0v819h119v-819h-119z" />
<glyph unicode="&#xe5b;" horiz-adv-x="1393" d="M61 414q0 149 70 243q35 51 80.5 75t99.5 24q43 0 82 -18.5t68 -52t46 -79.5t17 -100q0 -44 -10 -79t-28.5 -60t-43.5 -38.5t-55 -13.5q-24 0 -46.5 10.5t-39.5 28.5t-27 42.5t-10 52.5q0 27 10 51t27 43t38.5 30t45.5 11l21 -2q-35 80 -93 80q-32 0 -59.5 -19t-47.5 -53 t-32 -81t-12 -103t13.5 -100t37.5 -74.5t57.5 -47t73.5 -16.5q47 0 88.5 24.5t74.5 69.5t57 109.5t36 144.5q8 50 19.5 66t37.5 16q10 0 22.5 -12t25.5 -32t26 -47t25 -58l12 73q15 58 41 58q19 0 45.5 -32.5t46.5 -86.5q16 82 45 82q23 0 46.5 -29.5t47.5 -77.5 q13 38 24.5 58t31.5 20q14 0 30.5 -18.5t30.5 -44.5q16 33 47 28l111 -14q18 0 35.5 -10t17.5 -21q0 -12 -17.5 -23.5t-37.5 -13.5l-103 -10q-6 -20 -19 -38.5t-30 -18.5q-15 0 -31 22q-5 5 -11 17t-17 30q-11 -37 -27 -64.5t-33 -27.5q-14 0 -31 28.5t-40 76.5 q-8 -29 -15 -50.5t-12 -33.5q-18 -41 -39 -41q-19 0 -47 63q-8 17 -14.5 35t-14.5 35q-6 -28 -16 -56t-22 -50.5t-24 -37t-22 -14.5q-34 0 -45 35q-5 19 -6.5 31.5t-3.5 23.5q-3 22 -18 62q-17 -69 -45.5 -128t-65.5 -98q-100 -112 -227 -112q-62 0 -112 24.5t-86 68.5 t-55.5 106.5t-19.5 138.5zM336 449q0 -26 14.5 -43t34.5 -17q49 0 49 60q0 61 -49 61q-19 0 -34 -17.5t-15 -43.5z" />
<glyph unicode="&#x2000;" horiz-adv-x="799" />
<glyph unicode="&#x2001;" horiz-adv-x="1599" />
<glyph unicode="&#x2002;" horiz-adv-x="799" />
<glyph unicode="&#x2003;" horiz-adv-x="1599" />
<glyph unicode="&#x2004;" horiz-adv-x="533" />
<glyph unicode="&#x2005;" horiz-adv-x="399" />
<glyph unicode="&#x2006;" horiz-adv-x="266" />
<glyph unicode="&#x2007;" horiz-adv-x="266" />
<glyph unicode="&#x2008;" horiz-adv-x="199" />
<glyph unicode="&#x2009;" horiz-adv-x="319" />
<glyph unicode="&#x200a;" horiz-adv-x="88" />
<glyph unicode="&#x200c;" />
<glyph unicode="&#x200d;" />
<glyph unicode="&#x2010;" horiz-adv-x="526" d="M68 322v108h391v-108h-391z" />
<glyph unicode="&#x2011;" horiz-adv-x="526" d="M68 322v108h391v-108h-391z" />
<glyph unicode="&#x2012;" horiz-adv-x="526" d="M68 322v108h391v-108h-391z" />
<glyph unicode="&#x2013;" horiz-adv-x="811" d="M66 297v90h679v-90h-679z" />
<glyph unicode="&#x2014;" horiz-adv-x="1622" d="M66 297v90h1490v-90h-1490z" />
<glyph unicode="&#x2018;" horiz-adv-x="375" d="M113 616v150q0 87 37 142q37 57 112 57v-68q-78 0 -78 -131h80v-150h-151z" />
<glyph unicode="&#x2019;" horiz-adv-x="375" d="M113 616v68q80 0 80 131h-80v150h149v-150q0 -86 -35 -139q-41 -60 -114 -60z" />
<glyph unicode="&#x201c;" horiz-adv-x="575" d="M90 616v150q0 199 148 199v-68q-78 0 -78 -131h80v-150h-150zM336 616v150q0 86 38 142q37 57 111 57v-68q-77 0 -77 -131h79v-150h-151z" />
<glyph unicode="&#x201d;" horiz-adv-x="575" d="M90 616v68q78 0 78 131h-78v150h150v-150q0 -86 -35 -139q-41 -60 -115 -60zM336 815v150h151v-150q0 -87 -34 -139q-41 -60 -115 -60v68q78 0 78 131h-80z" />
<glyph unicode="&#x2022;" horiz-adv-x="758" d="M72 410q0 127 90 217t217 90t217 -90t90 -217t-90 -218q-90 -90 -217 -90t-217 90q-90 91 -90 218z" />
<glyph unicode="&#x2026;" horiz-adv-x="1352" d="M150 0v150h151v-150h-151zM600 0v150h150v-150h-150zM1051 0v150h149v-150h-149z" />
<glyph unicode="&#x202f;" horiz-adv-x="319" />
<glyph unicode="&#x205f;" horiz-adv-x="399" />
<glyph unicode="&#x25fc;" horiz-adv-x="700" d="M0 0v700h700v-700h-700z" />
<glyph unicode="&#xe000;" horiz-adv-x="700" d="M0 0v700h700v-700h-700z" />
<glyph unicode="&#xf700;" horiz-adv-x="756" d="M16 604q21 100 105 162q91 70 233 70q84 0 144 -25q35 27 39 70h161q-17 -89 -112 -123q123 -111 119 -328q-5 -205 -83.5 -317.5t-222.5 -112.5h-245l-41 330q-9 69 -60 69h-22v107h121q73 0 81 -72l41 -323h95q77 0 133 69q69 85 69 250q0 149 -67 225q-61 70 -164 70 q-141 0 -180 -121h-144z" />
<glyph unicode="&#xf701;" d="M-856 922v112h577v-24q0 -88 -88 -88h-489z" />
<glyph unicode="&#xf702;" d="M-856 922v112h444v103h133v-215h-577z" />
<glyph unicode="&#xf703;" d="M-856 922v112h389q4 99 123 99t119 -107q0 -43 -32 -73.5t-87 -30.5h-512z" />
<glyph unicode="&#xf704;" d="M-856 922v112h250v103h133v-103h61v103h133v-215h-577z" />
<glyph unicode="&#xf705;" d="M-451 922v245h133v-245h-133z" />
<glyph unicode="&#xf706;" d="M-555 1055v102h96q107 0 107 -92v-31h350v-112h-494v86q0 47 -45 47h-14z" />
<glyph unicode="&#xf707;" d="M-737 922v100q0 135 153 135h29l80 -53l73 53h29q150 0 150 -123v-10h221v-102h-354v98q0 27 -31 33l-88 -72l-101 72q-28 -6 -28 -31v-100h-133z" />
<glyph unicode="&#xf708;" d="M-606 1018v102h106v99h133v-99h109v-102h-109v-96h-133v96h-106z" />
<glyph unicode="&#xf709;" d="M-537 922v61q0 145 166 145h131v-112h-100q-57 0 -57 -49v-45h-140z" />
<glyph unicode="&#xf70a;" d="M-197 922v245h133v-245h-133z" />
<glyph unicode="&#xf70b;" d="M-408 1055v102h97q106 0 106 -92v-31h301v-112h-444v86q0 47 -45 47h-15z" />
<glyph unicode="&#xf70c;" d="M-643 922v100q0 135 153 135h29l80 -53l74 53h28q150 0 150 -123v-14h115v-98h-248v98q0 27 -31 33l-88 -72l-100 72q-29 -6 -29 -31v-100h-133z" />
<glyph unicode="&#xf70d;" d="M-412 1018v102h107v99h133v-99h108v-102h-108v-96h-133v96h-107z" />
<glyph unicode="&#xf70e;" d="M-289 922v61q0 145 166 145h123v-112h-92q-58 0 -58 -49v-45h-139z" />
<glyph unicode="&#xf70f;" horiz-adv-x="1309" d="M57 600q26 101 113 166q95 70 236 70q164 0 258 -80q81 -72 81 -189v-295q0 -178 179 -178q180 0 180 178v547h133v-565q0 -117 -74 -188q-83 -74 -239 -74q-155 0 -238 74q-74 71 -74 188v293q0 84 -60 131q-61 47 -146 47q-70 0 -126 -32q-55 -31 -73 -81l100 -65 q-40 -16 -71 -49q-31 -32 -31 -66v-317h123v-115h-256v420q0 18 7.5 36.5t20 34t29.5 28t35 20.5z" />
<glyph unicode="&#xf710;" d="M-604 922v188h133v-76h502v-112h-635z" />
<glyph unicode="&#xf711;" d="M-449 1026q0 39 28.5 66.5t76.5 27.5t75 -27.5t27 -66.5t-27 -66.5t-75 -27.5t-76.5 27.5t-28.5 66.5z" />
<glyph unicode="&#xf712;" d="M-823 922v100q0 176 223 176h342v-94h-344q-90 0 -90 -62v-24h96l104 61l105 -61h129v-96h-146l-88 59l-92 -59h-239z" />
<glyph unicode="&#xf713;" d="M-412 1188v205h133v-205h-133z" />
<glyph unicode="&#xf714;" d="M-565 1307v92h86q96 0 96 -82v-29h260v-100h-389v88q0 31 -31 31h-22z" />
<glyph unicode="&#xf715;" d="M-604 1188v90q0 121 137 121h27l71 -47l66 47h26q136 0 136 -111v-12h102v-88h-223v88q0 21 -27 29l-80 -64l-90 64q-27 -8 -27 -27v-90h-118z" />
<glyph unicode="&#xf716;" d="M-500 1276v90h94v90h121v-90h96v-90h-96v-88h-121v88h-94z" />
<glyph unicode="&#xf717;" d="M-473 1116v55q0 132 147 132h119v-101h-90q-51 0 -51 -45v-41h-125z" />
<glyph unicode="&#xf718;" d="M-297 -309h233v-267h-133v150h-100v117z" />
<glyph unicode="&#xf719;" d="M-486 -309h177v-103q0 -49 55 -49q57 0 57 49v103h133v-103q0 -41 -10.5 -68.5t-33.5 -44t-59 -23.5t-87 -7q-108 0 -149 32q-40 31 -40 117h-43v97z" />
<glyph unicode="&#xf71a;" d="M-256 -400q0 39 27 65t69 26t69 -26t27 -65q0 -18 -7.5 -34.5t-20 -28.5t-30 -19.5t-38.5 -7.5t-38.5 7.5t-30 19.5t-20 28.5t-7.5 34.5z" />
<glyph unicode="&#xf71b;" d="M-473 0v1208h473v-1208h-473z" />
<glyph unicode="&#xf71c;" d="M-856 922v112h577v-24q0 -88 -88 -88h-489z" />
<glyph unicode="&#xf71d;" d="M-856 922v112h444v103h133v-215h-577z" />
<glyph horiz-adv-x="477" d="M-449 1026q0 39 28.5 66.5t76.5 27.5t75 -27.5t27 -66.5t-27 -66.5t-75 -27.5t-76.5 27.5t-28.5 66.5zM31 696v123h90q285 0 285 -327v-492h-134v469q0 227 -180 227h-61z" />
<glyph d="M-594 1133q0 42 24 75.5t66 53.5q34 21 82 24q-43 21 -43 74q0 21 9.5 42.5t26.5 41t40.5 35.5t50.5 26q54 23 117.5 28t129.5 5h25v-100q-26 2 -46 3t-34 1q-38 0 -77.5 -5t-68.5 -16q-29 -10 -45.5 -26t-16.5 -37q0 -29 29 -35t92 -6v-94q-20 2 -35.5 3t-28.5 1 q-40 0 -74 -6t-59.5 -16.5t-40 -26t-14.5 -33.5q0 -29 49 -29q31 0 58.5 9.5t58.5 23.5l49 -82q-35 -19 -80 -33t-90 -14q-6 2 -9 2h-7h-11q-57 6 -92 36t-35 75z" />
</font>
</defs>
</svg>
