<?xml version="1.0" standalone="no"?>
<!DOCTYPE svg PUBLIC "-//W3C//DTD SVG 1.1//EN" "http://www.w3.org/Graphics/SVG/1.1/DTD/svg11.dtd" >
<svg xmlns="http://www.w3.org/2000/svg">
<metadata></metadata>
<defs>
<font id="true_lightregular" horiz-adv-x="0" >
<font-face units-per-em="2048" ascent="1638" descent="-410" />
<missing-glyph horiz-adv-x="553" />
<glyph unicode="&#xd;" horiz-adv-x="553" />
<glyph unicode=" "  horiz-adv-x="553" />
<glyph unicode="&#x09;" horiz-adv-x="553" />
<glyph unicode="&#xa0;" horiz-adv-x="553" />
<glyph unicode="!" horiz-adv-x="326" d="M106 0v143h115v-143h-115zM117 678v287h92v-287l-21 -438h-51z" />
<glyph unicode="&#x22;" horiz-adv-x="500" d="M117 637v328h86v-328h-86zM297 637v328h86v-328h-86z" />
<glyph unicode="#" horiz-adv-x="752" d="M47 301v61h158l28 211h-147v62h156l43 299h67l-43 -299h191l43 299h67l-43 -299h142v-62h-150l-29 -211h142v-61h-150l-43 -301h-67l43 301h-191l-43 -301h-67l43 301h-150zM272 362h191l29 211h-191z" />
<glyph unicode="$" horiz-adv-x="752" d="M39 307h86q0 -231 223 -256v400q-139 30 -201 77q-84 64 -84 193q0 122 82 192q82 72 203 72v107h51v-107q122 0 205 -82t82 -211h-84q-1 100 -58 161q-56 60 -145 60v-389q146 -30 215 -78q99 -69 99 -196q0 -128 -94 -198q-92 -70 -220 -68v-115h-51v117q-79 7 -136 29 t-94.5 61t-56.5 96t-22 135zM150 713q0 -87 61 -127q37 -25 137 -49v376q-87 0 -139 -47q-59 -53 -59 -153zM399 51q96 0 161 49q67 49 67 148q0 139 -228 192v-389z" />
<glyph unicode="%" horiz-adv-x="1202" d="M94 698q0 256 213 256q215 0 215 -256t-215 -256q-213 0 -213 256zM166 698q0 -194 141 -194q144 0 144 194q0 195 -144 195q-141 0 -141 -195zM256 -41l612 1020h64l-610 -1020h-66zM686 236q0 256 215 256t215 -256q0 -252 -215 -252t-215 252zM758 233 q0 -192 143 -192t143 192q0 197 -143 197t-143 -197z" />
<glyph unicode="&#x26;" horiz-adv-x="825" d="M53 250q0 162 236 287l-54 72q-20 27 -26 36q-39 64 -39 125q0 86 61 140q61 55 152 55t152 -55q63 -54 63 -140q0 -131 -190 -252l210 -254q29 61 29 164h86q0 -128 -57 -231l162 -197h-107l-102 125q-116 -141 -285 -141q-128 0 -207 65q-84 73 -84 201zM137 242 q0 -81 62 -137q63 -54 149 -54q131 0 227 137l-239 293q-199 -106 -199 -239zM256 770q0 -61 109 -197q147 94 147 197q0 57 -37 90t-92 33q-27 0 -50 -8.5t-40 -24.5t-27 -39t-10 -51z" />
<glyph unicode="'" horiz-adv-x="375" d="M145 637v328h86v-328h-86z" />
<glyph unicode="(" horiz-adv-x="326" d="M70 360q0 333 190 625h68q-174 -276 -174 -657q0 -302 174 -582h-68q-190 308 -190 614z" />
<glyph unicode=")" horiz-adv-x="326" d="M0 -254q172 271 172 653q0 302 -172 586h66q190 -313 190 -616q0 -334 -190 -623h-66z" />
<glyph unicode="*" horiz-adv-x="475" d="M37 805l18 49l156 -55v166h53v-166l156 55l18 -49l-157 -53l96 -134l-43 -30l-98 135l-99 -135l-43 30l99 134z" />
<glyph unicode="+" horiz-adv-x="811" d="M66 303v72h305v305h71v-305h303v-72h-303v-303h-71v303h-305z" />
<glyph unicode="," horiz-adv-x="375" d="M125 -123q31 12 49 53q16 33 14 70h-57v143h113v-143q0 -148 -119 -180v57z" />
<glyph unicode="-" horiz-adv-x="500" d="M82 332v80h338v-80h-338z" />
<glyph unicode="." horiz-adv-x="375" d="M131 0v143h113v-143h-113z" />
<glyph unicode="/" horiz-adv-x="451" d="M-14 -16l413 1001h68l-412 -1001h-69z" />
<glyph unicode="0" horiz-adv-x="752" d="M45 467q0 487 330 487q332 0 332 -487q0 -483 -332 -483q-330 0 -330 483zM131 467q0 -416 244 -416q246 0 246 416t-246 416q-244 0 -244 -416z" />
<glyph unicode="1" horiz-adv-x="752" d="M131 702v62q134 6 180 29q68 35 86 153h70v-946h-86v702h-250z" />
<glyph unicode="2" horiz-adv-x="752" d="M49 0q1 124 86 221q52 63 185 151q134 88 184 138q78 78 78 180q0 88 -62 144q-58 49 -149 49q-110 0 -166 -80q-51 -73 -47 -185h-86q-5 152 74 244q80 92 229 92q129 0 211 -70q82 -69 82 -196q0 -179 -238 -336l-125 -83q-42 -28 -43 -29q-102 -80 -117 -162h527v-78 h-623z" />
<glyph unicode="3" horiz-adv-x="752" d="M45 301h84q-4 -112 59 -182q65 -68 179 -68q99 0 170 56q71 57 71 153q0 97 -67 152q-61 49 -160 49h-72v71h72q73 0 129 41q63 49 63 132q0 44 -15.5 77t-42.5 55.5t-65 34t-83 11.5q-53 0 -93.5 -17t-68 -48.5t-41 -76t-12.5 -98.5h-86q1 136 82 224q81 87 217 87 q122 0 202 -57q90 -66 90 -184q0 -170 -157 -209v-2q93 -15 143.5 -78t50.5 -156q0 -135 -98 -215q-90 -69 -227 -69q-152 0 -243 84q-92 84 -81 233z" />
<glyph unicode="4" horiz-adv-x="752" d="M41 236v81l438 629h76v-639h143v-71h-143v-236h-78v236h-436zM117 307h360v514h-2z" />
<glyph unicode="5" horiz-adv-x="752" d="M49 270h84q1 -97 68 -159q67 -60 166 -60q106 0 170 76q65 77 65 182q0 104 -69 175q-68 71 -173 71q-136 0 -210 -113h-72l90 492h473v-78h-412l-59 -317q76 88 201 88q143 0 230 -91q87 -90 87 -235q0 -137 -95 -227t-233 -90q-136 0 -219 73q-91 80 -92 213z" />
<glyph unicode="6" horiz-adv-x="752" d="M53 483q0 157 53 277q87 194 285 194q260 0 291 -247h-84q-27 176 -199 176q-260 0 -260 -424h2q34 70 103 114q68 43 149 43q143 0 228 -88q86 -89 86 -227q0 -139 -92 -228t-230 -89q-174 0 -253 112t-79 387zM158 295q0 -108 57 -172q61 -72 178 -72q98 0 163 72 q65 73 65 172q0 105 -62 178q-62 72 -168 72q-108 0 -171 -71q-62 -71 -62 -179z" />
<glyph unicode="7" horiz-adv-x="752" d="M70 856v78h608v-78q-360 -372 -383 -856h-92q17 242 105 437q45 99 115.5 203t168.5 216h-522z" />
<glyph unicode="8" horiz-adv-x="752" d="M49 264q2 93 54 160q53 68 139 82v4q-154 45 -154 207q0 114 92 180q79 57 195 57q113 0 196 -57q91 -66 91 -180q0 -160 -154 -209v-2q93 -17 143.5 -81t50.5 -161q0 -137 -93 -209q-94 -71 -234 -71q-142 0 -230 67q-98 76 -96 213zM135 264q0 -102 72 -160 q64 -53 168 -53q105 0 172 55q69 55 69 158q0 97 -71 156q-68 51 -170 51q-104 0 -168 -51q-72 -56 -72 -156zM172 717q0 -89 64 -135q55 -39 139 -39q85 0 144 44t59 130q0 39 -15 70t-41.5 52t-64 32.5t-82.5 11.5q-83 0 -139 -43q-64 -45 -64 -123z" />
<glyph unicode="9" horiz-adv-x="752" d="M45 635q0 137 91 228t231 91q174 0 252 -115q79 -113 79 -388q0 -157 -53 -277q-85 -190 -285 -190q-260 0 -290 243h84q10 -81 63 -128.5t135 -47.5q260 0 260 424h-2q-18 -36 -44.5 -65t-59 -50t-70.5 -32t-78 -11q-142 0 -227 88q-86 89 -86 230zM131 639 q0 -108 61 -179q62 -71 168 -71q109 0 172 74q62 68 62 176q0 110 -55 172q-65 72 -181 72q-99 0 -163 -72q-64 -71 -64 -172z" />
<glyph unicode=":" horiz-adv-x="375" d="M131 0v143h113v-143h-113zM131 532v144h113v-144h-113z" />
<glyph unicode=";" horiz-adv-x="375" d="M125 -123q31 12 49 53q16 33 14 70h-57v143h113v-143q0 -148 -119 -180v57zM131 532v144h113v-144h-113z" />
<glyph unicode="&#x3c;" horiz-adv-x="811" d="M61 305v74l689 315v-73l-605 -279l605 -279v-69z" />
<glyph unicode="=" horiz-adv-x="811" d="M66 172v72h679v-72h-679zM66 438v72h679v-72h-679z" />
<glyph unicode="&#x3e;" horiz-adv-x="811" d="M61 -6v69l605 279l-605 279v73l689 -315v-74z" />
<glyph unicode="?" horiz-adv-x="752" d="M61 653q-6 150 84 242q92 92 236 92q135 0 216 -72q81 -71 81 -190q0 -109 -66 -190l-60 -61l-63 -61q-63 -62 -63 -128v-54h-92v56q0 104 125 214q125 111 125 218q0 87 -55 135.5t-148 48.5q-108 0 -173 -71q-63 -71 -56 -179h-91zM319 0v137h123v-137h-123z" />
<glyph unicode="@" horiz-adv-x="1081" d="M63 487q0 209 144 353q145 145 352 145q199 0 329 -118q130 -117 130 -302q0 -157 -99 -275q-97 -118 -214 -118q-83 0 -91 92h-4q-83 -90 -172 -90q-80 0 -129 57q-49 58 -49 140q0 148 88 266q96 125 234 125q100 0 143 -115l33 88h71l-129 -389q-14 -47 -14 -74 q0 -39 31 -39q88 0 158 109q71 110 71 227q0 163 -115 260q-107 95 -268 95q-188 0 -308 -129t-120 -318q0 -184 123 -310t307 -126q101 0 196 48t152 132h70q-62 -110 -176 -174q-116 -63 -242 -63q-217 0 -360 143q-142 142 -142 360zM346 377q0 -60 32 -95.5t81 -35.5 q88 0 157 114q66 105 66 203q0 46 -33 87q-33 40 -74 40q-96 0 -165 -108q-64 -98 -64 -205z" />
<glyph unicode="A" horiz-adv-x="852" d="M-3 0l382 965h104l377 -965h-98l-117 301h-440l-115 -301h-93zM233 379h381l-186 493z" />
<glyph unicode="B" horiz-adv-x="901" d="M98 0v965h408q309 0 309 -236q0 -78 -47 -140q-45 -60 -121 -77v-2q93 -12 149 -77t56 -159q0 -274 -346 -274h-408zM188 78h318q254 0 254 198q0 187 -254 187h-318v-385zM188 543h318q106 0 161.5 44.5t55.5 119.5q0 180 -217 180h-318v-344z" />
<glyph unicode="C" horiz-adv-x="952" d="M51 483q0 212 115 351q123 151 340 151q147 0 254 -80q117 -86 135 -231h-92q-26 110 -107 170q-83 63 -190 63q-178 0 -277 -133q-86 -118 -86 -291q0 -174 86 -293q99 -133 277 -133q131 0 217 93q81 84 94 219h92q-19 -180 -127 -282q-106 -100 -276 -100 q-217 0 -340 146q-115 139 -115 350z" />
<glyph unicode="D" horiz-adv-x="926" d="M98 0v965h334q442 0 442 -482q0 -483 -442 -483h-334zM188 78h197q208 0 303 95q94 94 94 310q0 214 -94 308q-95 96 -303 96h-197v-809z" />
<glyph unicode="E" horiz-adv-x="801" d="M98 0v965h666v-78h-576v-348h539v-80h-539v-381h582v-78h-672z" />
<glyph unicode="F" horiz-adv-x="725" d="M98 0v965h611v-78h-521v-348h463v-80h-463v-459h-90z" />
<glyph unicode="G" horiz-adv-x="1001" d="M51 483q0 212 115 351q124 151 342 151q309 0 420 -295l-90 -24q-79 241 -330 241q-180 0 -279 -133q-86 -118 -86 -291q0 -175 86 -293q99 -133 279 -133q158 0 254 109q83 94 100 246h-350v80h449q0 -212 -113 -355q-123 -150 -340 -150q-218 0 -342 144 q-115 139 -115 352z" />
<glyph unicode="H" horiz-adv-x="952" d="M98 0v965h90v-418h574v418h92v-965h-92v467h-574v-467h-90z" />
<glyph unicode="I" horiz-adv-x="301" d="M104 0v965h93v-965h-93z" />
<glyph unicode="J" horiz-adv-x="504" d="M41 0v78h53q90 0 151 61q62 62 62 148v678h94v-680q0 -132 -85 -208q-86 -77 -220 -77h-55z" />
<glyph unicode="K" horiz-adv-x="877" d="M98 0v965h90v-519l562 519h124l-432 -398l453 -567h-119l-401 504l-187 -172v-332h-90z" />
<glyph unicode="L" horiz-adv-x="725" d="M98 0v965h90v-887h541v-78h-631z" />
<glyph unicode="M" horiz-adv-x="1126" d="M94 0v965h135l334 -846l334 846h135v-965h-92v834h-4l-330 -834h-86l-332 834h-2v-834h-92z" />
<glyph unicode="N" horiz-adv-x="952" d="M96 0v965h103l563 -815h2v815h92v-965h-102l-564 817h-2v-817h-92z" />
<glyph unicode="O" horiz-adv-x="1001" d="M45 483q0 212 115 351q124 151 342 151t342 -151q112 -139 112 -351q0 -211 -112 -350q-125 -146 -342 -146t-342 146q-115 139 -115 350zM137 483q0 -175 86 -293q99 -133 279 -133q179 0 276 133q86 119 86 293q0 173 -86 291q-97 133 -276 133q-180 0 -279 -133 q-86 -118 -86 -291z" />
<glyph unicode="P" horiz-adv-x="852" d="M98 0v965h428q132 0 209 -73q78 -74 78 -202q0 -131 -78 -204q-78 -72 -209 -72h-338v-414h-90zM188 492h318q215 0 215 198q0 197 -215 197h-318v-395z" />
<glyph unicode="Q" horiz-adv-x="1001" d="M45 483q0 212 115 351q124 151 342 151t342 -151q112 -139 112 -351q0 -244 -147 -383l139 -100l-47 -54l-149 105q-104 -64 -250 -64q-217 0 -342 146q-115 139 -115 350zM137 483q0 -175 86 -293q99 -133 279 -133q101 0 178 47l-127 97l47 59l141 -106 q123 115 123 329q0 173 -86 291q-97 133 -276 133q-180 0 -279 -133q-86 -118 -86 -291z" />
<glyph unicode="R" horiz-adv-x="901" d="M98 0v965h439q132 0 211 -62q86 -68 86 -198q0 -199 -189 -250l229 -455h-108l-209 428h-369v-428h-90zM188 506h340q88 0 150 51q63 51 63 135q0 195 -213 195h-340v-381z" />
<glyph unicode="S" horiz-adv-x="852" d="M48 295q0 11 1 22h92q0 -5 -1 -9q0 -251 315 -251q92 0 166 45q90 55 90 152q0 125 -199 174l-215 53q-217 54 -217 232q0 98 65 172q85 100 267 100q152 0 250 -76q108 -83 108 -223h-92q-5 108 -80 164q-77 57 -184 57q-242 0 -242 -192q0 -114 145 -148l236 -57 q250 -61 250 -254q0 -94 -55 -164q-93 -105 -314 -105q-182 0 -282 72q-104 82 -104 236z" />
<glyph unicode="T" horiz-adv-x="752" d="M0 887v78h758v-11q0 -69 -86 -69l-250 2v-887h-92v887h-330z" />
<glyph unicode="U" horiz-adv-x="926" d="M88 348v617h12q80 0 80 -93v-503q0 -312 283 -312q282 0 282 312v596h93v-617q0 -161 -86 -258q-99 -103 -289 -103q-192 0 -289 103q-86 97 -86 258z" />
<glyph unicode="V" horiz-adv-x="801" d="M-3 965h93l313 -865h3l311 865h96l-358 -965h-107z" />
<glyph unicode="W" horiz-adv-x="1227" d="M0 965h98l219 -844h2l236 844h115l237 -844h2l221 844h93l-267 -965h-98l-244 864h-4l-241 -864h-101z" />
<glyph unicode="X" horiz-adv-x="776" d="M-9 0l341 498l-328 467h109l272 -404l283 404h102l-330 -469l348 -496h-110l-293 426l-297 -426h-97z" />
<glyph unicode="Y" horiz-adv-x="825" d="M-7 965h103l318 -490l315 490h111l-381 -568v-397h-92v397z" />
<glyph unicode="Z" horiz-adv-x="776" d="M6 0v82l635 805h-592v78h696v-80l-636 -807h649v-78h-752z" />
<glyph unicode="[" horiz-adv-x="326" d="M102 -251v1236h217v-72h-131v-1092h131v-72h-217z" />
<glyph unicode="\" horiz-adv-x="451" d="M-11 985h62l416 -998h-72z" />
<glyph unicode="]" horiz-adv-x="326" d="M6 -179h131v1092h-131v72h217v-1236h-217v72z" />
<glyph unicode="^" horiz-adv-x="811" d="M59 322l312 612h69l312 -612h-78l-271 526l-266 -526h-78z" />
<glyph unicode="_" horiz-adv-x="676" d="M0 -93h676v-68h-676v68z" />
<glyph unicode="`" horiz-adv-x="250" d="M-34 985h97l142 -190h-68z" />
<glyph unicode="a" horiz-adv-x="702" d="M43 184q0 129 119 176q58 25 256 48q60 6 80 22q28 21 28 74q0 141 -182 141q-180 0 -186 -162h-84q12 234 282 234q256 0 256 -223v-371q0 -51 50 -51q16 0 28 6v-72q-32 -6 -55 -6q-62 0 -84 33q-16 25 -16 88h-5q-50 -75 -98 -105q-60 -29 -156 -29q-102 0 -163 42 q-70 55 -70 155zM129 188q0 -62 46 -99q47 -38 110 -38q99 0 170 59q71 60 71 160v111h-2q-10 -19 -71 -31l-217 -39q-107 -35 -107 -123z" />
<glyph unicode="b" horiz-adv-x="776" d="M82 0v965h84v-400h2q27 72 94 112t150 40q151 0 235 -111q78 -101 78 -258q0 -158 -78 -258q-84 -103 -235 -103q-188 0 -250 146h-2v-133h-78zM166 348q0 -124 55 -203q64 -94 191 -94q113 0 174 94q53 83 53 203t-53 203q-61 94 -174 94q-127 0 -191 -94 q-55 -77 -55 -203z" />
<glyph unicode="c" horiz-adv-x="702" d="M45 348q0 159 88 263q88 106 242 106q58 0 107 -15.5t85.5 -45.5t59.5 -74.5t30 -102.5h-84q-36 166 -198 166q-114 0 -182 -92q-62 -85 -62 -205t62 -203q67 -94 182 -94q81 0 137 55q57 55 66 144h86q-17 -125 -95 -194q-77 -69 -194 -69q-154 0 -244 103 q-86 104 -86 258z" />
<glyph unicode="d" horiz-adv-x="776" d="M51 348q0 157 78 258q84 111 236 111q82 0 149 -40q68 -41 92 -112h4v400h84v-965h-78v133h-2q-25 -66 -99 -107q-74 -39 -150 -39q-152 0 -236 103q-78 100 -78 258zM137 348q0 -120 53 -203q61 -94 175 -94q127 0 190 94q55 79 55 203q0 126 -55 203q-63 94 -190 94 q-114 0 -175 -94q-53 -83 -53 -203z" />
<glyph unicode="e" horiz-adv-x="702" d="M45 346q0 155 76 256q85 115 239 115q157 0 240 -123q68 -100 68 -248v-20h-537q0 -106 53 -185q64 -90 176 -90q167 0 220 176l77 -24q-63 -216 -297 -216q-157 0 -239 103q-76 95 -76 256zM131 397h451q-9 106 -66 176q-57 72 -156 72q-98 0 -161 -76q-57 -66 -68 -172 z" />
<glyph unicode="f" horiz-adv-x="350" d="M8 627v71h119v64q0 203 170 203q22 0 40 -1t32 -3v-74q-38 6 -64 6q-63 0 -82 -39q-10 -21 -10 -96v-60h137v-71h-137v-627h-86v627h-119z" />
<glyph unicode="g" horiz-adv-x="752" d="M45 367q0 149 85 249q86 101 230 101q74 0 135 -40q61 -41 87 -99h4v120h84v-641q0 -328 -310 -328q-115 0 -192 49q-89 57 -96 162h86q24 -140 202 -140q226 0 226 257v95h-4q-66 -144 -222 -144q-159 0 -241 105q-74 95 -74 254zM131 356q0 -112 57 -190 q62 -86 172 -86q105 0 168 86q58 77 58 190q0 117 -51 197q-62 92 -175 92q-112 0 -176 -90q-53 -79 -53 -199z" />
<glyph unicode="h" horiz-adv-x="725" d="M80 0v965h86v-387h2q22 61 85 100q64 39 138 39q254 0 254 -268v-449h-84v436q0 209 -178 209q-101 0 -159 -67q-58 -65 -58 -170v-408h-86z" />
<glyph unicode="i" horiz-adv-x="250" d="M82 0v698h86v-698h-86zM82 829v136h86v-136h-86z" />
<glyph unicode="j" horiz-adv-x="270" d="M-105 -194h12q82 0 138 65q57 64 57 149v678h86v-682q0 -120 -82 -203q-81 -84 -189 -84h-22v77zM102 829v136h86v-136h-86z" />
<glyph unicode="k" horiz-adv-x="676" d="M82 0v965h84v-605l387 338h113l-297 -260l317 -438h-106l-277 379l-137 -115v-264h-84z" />
<glyph unicode="l" horiz-adv-x="250" d="M82 0v965h86v-965h-86z" />
<glyph unicode="m" horiz-adv-x="1126" d="M82 0v698h78v-118h4q74 137 227 137q163 0 201 -135q63 135 221 135q231 0 231 -244v-473h-83v469q0 176 -166 176q-189 0 -189 -250v-395h-86v473q0 172 -145 172q-209 0 -209 -256v-389h-84z" />
<glyph unicode="n" horiz-adv-x="725" d="M80 0v698h86v-120h2q22 61 85 100q64 39 138 39q254 0 254 -268v-449h-84v436q0 209 -178 209q-101 0 -159 -67q-58 -65 -58 -170v-408h-86z" />
<glyph unicode="o" horiz-adv-x="752" d="M45 348q0 159 88 263q88 106 242 106q155 0 243 -106q89 -106 89 -263q0 -154 -86 -258q-91 -103 -246 -103q-154 0 -244 103q-86 104 -86 258zM131 348q0 -120 62 -203q67 -94 182 -94q117 0 184 94q62 83 62 203t-62 205q-68 92 -184 92q-114 0 -182 -92 q-62 -85 -62 -205z" />
<glyph unicode="p" horiz-adv-x="776" d="M82 -251v949h78v-133h2q63 152 250 152q151 0 235 -111q78 -101 78 -258q0 -158 -78 -258q-84 -103 -235 -103q-41 0 -79 9t-70.5 27t-57 45.5t-37.5 64.5h-2v-384h-84zM166 348q0 -124 55 -203q64 -94 191 -94q113 0 174 94q53 83 53 203t-53 203q-61 94 -174 94 q-246 0 -246 -297z" />
<glyph unicode="q" horiz-adv-x="776" d="M51 348q0 157 78 258q84 111 236 111q77 0 150 -43q74 -44 99 -109h2v133h78v-949h-84v384h-4q-24 -71 -92 -109q-67 -37 -149 -37q-152 0 -236 103q-78 100 -78 258zM137 348q0 -120 53 -203q61 -94 175 -94q127 0 190 94q55 79 55 203q0 126 -55 203q-63 94 -190 94 q-114 0 -175 -94q-53 -83 -53 -203z" />
<glyph unicode="r" horiz-adv-x="426" d="M82 0v698h84v-104q81 107 207 107q11 0 22 -1l31 -2v-75q-12 1 -24 1q-82 0 -154 -60q-82 -67 -82 -167v-397h-84z" />
<glyph unicode="s" horiz-adv-x="649" d="M41 225h86q4 -84 63 -129q54 -45 142 -45q72 0 125 31q65 35 65 102q0 96 -151 127l-111 25q-194 44 -194 186q0 99 86 150q70 45 176 45q111 0 181 -58q70 -57 75 -165h-84q-6 151 -185 151q-163 0 -163 -119q0 -88 145 -118l113 -25q198 -44 198 -195q0 -104 -90 -161 q-77 -40 -190 -40q-268 0 -287 238z" />
<glyph unicode="t" horiz-adv-x="424" d="M10 627v71h121v209h86v-209h141v-71h-141v-351q0 -202 158 -202h18v-75h-33q-52 0 -94.5 18t-72.5 52t-46 84t-16 115v359h-121z" />
<glyph unicode="u" horiz-adv-x="725" d="M80 250v448h24q62 0 62 -71v-359q0 -215 196 -215q197 0 197 215v430h86v-448q0 -261 -285 -261q-280 0 -280 261z" />
<glyph unicode="v" horiz-adv-x="627" d="M2 698h96l217 -612h4l216 612h88l-261 -698h-90z" />
<glyph unicode="w" horiz-adv-x="1001" d="M10 698h90l181 -598h2l170 598h96l170 -598h2l180 598h90l-225 -698h-92l-172 586h-2l-172 -586h-92z" />
<glyph unicode="x" horiz-adv-x="649" d="M2 0l270 362l-249 336h106l199 -266l194 266h107l-252 -333l272 -365h-108l-219 293l-216 -293h-104z" />
<glyph unicode="y" horiz-adv-x="627" d="M2 698h90l232 -598l215 598h86l-363 -949h-84l103 253z" />
<glyph unicode="z" horiz-adv-x="627" d="M20 0v70l455 557h-424v71h533v-61l-461 -565h479v-72h-582z" />
<glyph unicode="{" horiz-adv-x="451" d="M113 328v71q96 0 96 215v203q0 168 119 168h67v-72h-26q-74 0 -74 -139v-190q0 -161 -94 -219v-3q94 -58 94 -219v-183q0 -139 74 -139h26v-72h-67q-119 0 -119 168v194q0 217 -96 217z" />
<glyph unicode="|" horiz-adv-x="301" d="M115 -13v998h71v-998h-71z" />
<glyph unicode="}" horiz-adv-x="451" d="M53 -179h29q74 0 74 139v183q0 161 94 219v3q-94 58 -94 219v190q0 139 -74 139h-29v72h68q119 0 119 -168v-201q0 -217 98 -217v-71q-98 0 -98 -215v-196q0 -168 -119 -168h-68v72z" />
<glyph unicode="~" horiz-adv-x="811" d="M94 303q60 117 168 117q59 0 158 -44t131 -44q58 0 119 94l47 -49q-80 -117 -168 -117q-51 0 -147 44q-94 44 -146 44q-70 0 -115 -92z" />
<glyph unicode="&#xa4;" horiz-adv-x="840" d="M8 164l148 145q-62 83 -62 193q0 114 62 188l-148 150l76 71l145 -145q79 59 193 59q55 0 105.5 -16t82.5 -43l150 145l71 -71l-145 -150q59 -79 59 -188q0 -114 -59 -193l145 -145l-71 -76l-150 148q-15 -13 -36 -23.5t-47 -20.5q-53 -18 -105 -18q-110 0 -193 62 l-145 -148zM197 502q0 -94 63 -164q65 -68 162 -68q92 0 158 68q63 63 63 164q0 46 -16.5 87t-45.5 72t-70 49.5t-89 18.5q-96 0 -160 -67q-65 -73 -65 -160z" />
<glyph unicode="&#xa9;" horiz-adv-x="1081" d="M37 483q0 213 145 357q145 145 359 145q213 0 358 -145q145 -144 145 -357q0 -214 -145 -356q-146 -143 -358 -143q-213 0 -359 143q-145 142 -145 356zM117 483q0 -183 120 -307q122 -125 304 -125q181 0 303 125q121 124 121 307q0 181 -121 305q-122 125 -303 125 q-182 0 -304 -125q-120 -125 -120 -305zM260 483q0 139 79 224q80 86 214 86q99 0 166 -55q69 -54 84 -150h-70q-29 142 -178 143q-107 0 -165 -70q-58 -68 -58 -178t58 -180t165 -70q149 0 178 144h70q-15 -95 -84 -151q-68 -54 -166 -54q-135 0 -214 87q-79 86 -79 224z " />
<glyph unicode="&#xab;" horiz-adv-x="575" d="M82 330v84l178 168v-90l-127 -121l127 -119v-90zM299 330v84l180 168v-90l-127 -121l127 -119v-90z" />
<glyph unicode="&#xac;" horiz-adv-x="758" d="M35 297v90h686v-268h-82v178h-604z" />
<glyph unicode="&#xad;" horiz-adv-x="811" d="M66 303v72h679v-72h-679z" />
<glyph unicode="&#xae;" horiz-adv-x="1081" d="M37 483q0 213 145 357q145 145 359 145q213 0 358 -145q145 -144 145 -357q0 -214 -145 -356q-146 -143 -358 -143q-213 0 -359 143q-145 142 -145 356zM117 483q0 -183 120 -307q122 -125 304 -125q181 0 303 125q121 124 121 307q0 181 -121 305q-122 125 -303 125 q-182 0 -304 -125q-120 -125 -120 -305zM358 193v581h224q188 0 188 -162q0 -139 -145 -161l172 -258h-84l-162 258h-121v-258h-72zM430 510h94q85 0 121 14q53 23 53 88q0 101 -137 101h-131v-203z" />
<glyph unicode="&#xb0;" horiz-adv-x="541" d="M66 713q0 40 15.5 77t42.5 64.5t63.5 44t78.5 16.5q43 0 80.5 -16t65 -43t43.5 -64t16 -79t-16 -79t-43.5 -64.5t-65 -43.5t-80.5 -16q-41 0 -77 15.5t-63.5 43t-43.5 64.5t-16 80zM121 713q0 -30 11.5 -57t31 -47t46 -32t56.5 -12q61 0 105 43q45 46 45 105 q0 30 -12 56.5t-32.5 46t-47.5 31t-58 11.5t-57.5 -11t-46 -30.5t-30.5 -46t-11 -57.5z" />
<glyph unicode="&#xb6;" horiz-adv-x="727" d="M0 858q0 153 94 229q90 66 248 66h389v-41h-102v-1352h-62v1352h-145v-1352h-55v801q-168 0 -263 62q-104 74 -104 235z" />
<glyph unicode="&#xb7;" horiz-adv-x="338" d="M96 449q0 30 20.5 50.5t53.5 20.5q31 0 51.5 -21.5t20.5 -49.5q0 -31 -21.5 -52.5t-50.5 -21.5q-33 0 -53.5 20.5t-20.5 53.5z" />
<glyph unicode="&#xbb;" horiz-adv-x="575" d="M98 162v90l127 119l-127 121v90l178 -168v-84zM315 162v90l127 119l-127 121v90l181 -168v-84z" />
<glyph unicode="&#xd7;" horiz-adv-x="811" d="M100 84l254 256l-254 254l50 51l256 -256l256 256l49 -51l-256 -254l256 -256l-49 -51l-256 256l-256 -256z" />
<glyph unicode="&#xf7;" horiz-adv-x="811" d="M66 303v72h679v-72h-679zM330 68q0 30 22.5 52.5t53.5 22.5q30 0 52.5 -22.5t22.5 -52.5q0 -15 -6 -28t-16.5 -22.5t-23.5 -15.5t-27 -6q-33 0 -55.5 20.5t-22.5 51.5zM330 612q0 31 22.5 53.5t53.5 22.5q30 0 52.5 -22.5t22.5 -53.5q0 -14 -6 -27.5t-16.5 -24t-23.5 -17 t-27 -6.5q-33 0 -55.5 22.5t-22.5 52.5z" />
<glyph unicode="&#xe00;" horiz-adv-x="205" />
<glyph unicode="&#xe01;" horiz-adv-x="817" d="M72 0v547q0 117 82 198q91 91 252 91q162 0 256 -91q83 -81 83 -198v-547h-92v535q0 109 -73 167q-68 54 -174 54t-170 -54q-72 -59 -72 -167v-535h-92z" />
<glyph unicode="&#xe02;" horiz-adv-x="717" d="M72 240v229q0 80 65 128q66 48 66 81q0 65 -113 65h-18v76h75q145 0 150 -117q4 -88 -65 -142q-68 -54 -68 -105v-203q0 -189 194 -189q195 0 195 189v567h92v-579q0 -253 -287 -253q-138 0 -212 64.5t-74 188.5z" />
<glyph unicode="&#xe03;" horiz-adv-x="717" d="M51 727v92h58l53 -41l55 41h72v-80q0 -90 -63 -144q-62 -54 -62 -116v-227q0 -189 194 -189q195 0 195 189v567h92v-579q0 -253 -287 -253q-138 0 -212 64.5t-74 188.5v268q0 69 62 119q63 49 63 84v16h-146z" />
<glyph unicode="&#xe04;" horiz-adv-x="817" d="M72 0v547q0 117 82 198q91 91 252 91q162 0 256 -91q83 -81 83 -198v-547h-92v535q0 109 -73 167q-68 54 -174 54t-170 -54q-72 -59 -72 -167v-95h213v-86h-213v-354h-92z" />
<glyph unicode="&#xe05;" horiz-adv-x="817" d="M72 0v614q0 91 67 154q62 57 148 68l121 -105l122 105q86 -11 148 -68q67 -63 67 -154v-614h-92v610q0 105 -100 138l-145 -130l-144 130q-42 -11 -71 -48.5t-29 -89.5v-170h192v-82h-192v-358h-92z" />
<glyph unicode="&#xe06;" horiz-adv-x="817" d="M51 727v92h58l53 -41l55 41h72v-80q0 -90 -63 -144q-62 -54 -62 -116v-168q0 -91 82 -164q85 -79 198 -79q209 0 209 217v534h92v-551q0 -125 -67 -198q-76 -79 -217 -79q-191 0 -297 136v-127h-92v508q0 69 62 119q63 49 63 84v16h-146z" />
<glyph unicode="&#xe07;" horiz-adv-x="760" d="M35 819h98l103 -739h174q206 0 206 362q0 314 -227 297v80h62q258 0 258 -373q0 -446 -265 -446h-297z" />
<glyph unicode="&#xe08;" horiz-adv-x="756" d="M16 414v73h84q68 0 80 -67l62 -340h112q103 0 172 74q86 92 86 276q0 166 -80 252q-69 74 -182 74q-79 0 -143 -43q-72 -45 -84 -119h-100q17 107 109 174q94 68 222 68q170 0 260 -111q91 -110 91 -293q0 -203 -91 -318q-90 -114 -252 -114h-204l-64 348 q-6 39 -18.5 52.5t-46.5 13.5h-13z" />
<glyph unicode="&#xe09;" horiz-adv-x="801" d="M20 408v79h68q80 0 80 -77v-154q0 -193 203 -193q105 0 185 79q81 79 81 171v219q0 115 -80 175q-68 51 -176 51q-90 0 -162 -45t-90 -119h-100q23 108 119 175q97 67 239 67q152 0 247 -77t95 -200v-559h-92v127q-106 -136 -287 -136q-274 0 -274 249v114q0 54 -41 54 h-15z" />
<glyph unicode="&#xe0a;" horiz-adv-x="750" d="M72 0v819h92v-743h174q260 0 260 233q0 107 -68 170q-67 64 -168 64v73q100 -4 170 49q70 54 66 154h100q9 -86 -40 -153q-48 -66 -142 -84v-2q182 -72 182 -287q0 -151 -88 -227q-79 -69 -219 -67z" />
<glyph unicode="&#xe0b;" horiz-adv-x="750" d="M51 727v92h58l53 -41l55 41h72v-80q0 -90 -63 -144q-62 -54 -62 -116v-403h174q260 0 260 233q0 107 -68 170q-67 64 -168 64v73q100 -4 170 49q70 54 66 154h100q9 -86 -40 -153q-48 -66 -142 -84v-2q182 -72 182 -287q0 -151 -88 -227q-79 -69 -219 -67l-319 1v508 q0 69 62 119q63 49 63 84v16h-146z" />
<glyph unicode="&#xe0c;" horiz-adv-x="1350" d="M49 590q21 111 120 178q100 68 237 68q146 0 243 -74q96 -74 96 -199v-272q0 -103 68 -163q67 -60 172 -60q86 0 143 54q58 54 58 161v536h92v-561q0 -121 -76 -194t-201 -73q-172 0 -256 107v-98h-92v549q0 103 -73 158q-67 49 -174 49q-45 0 -86.5 -9.5t-76 -28.5 t-59.5 -46t-37 -62l115 -71q-29 -14 -65 -53q-33 -38 -33 -68v-338h123v-80h-215v410q0 35 25 69q26 36 59 49z" />
<glyph unicode="&#xe0d;" horiz-adv-x="1329" d="M49 590q21 111 120 178q100 68 237 68q146 0 243 -74q96 -74 96 -199v-297q0 -192 187 -192q89 0 160 61q73 61 73 160v524h92v-729q0 -271 -303 -271h-301v78h293q219 0 219 166v35q-104 -101 -266 -101q-108 0 -174 54q-72 61 -72 180v318q0 103 -73 158 q-67 49 -174 49q-45 0 -86.5 -9.5t-76 -28.5t-59.5 -46t-37 -62l115 -71q-29 -14 -65 -53q-33 -38 -33 -68v-338h123v-80h-215v410q0 35 25 69q26 36 59 49z" />
<glyph unicode="&#xe0e;" horiz-adv-x="827" d="M0 0v80h82v330q0 35 25 69q26 36 59 49l-107 62q21 111 120 178q101 68 237 68q146 0 243 -74q97 -73 97 -199v-836h-248l-121 96l-119 -96h-186v84h164l141 106l141 -106h136v738q0 102 -74 158q-67 49 -174 49q-89 0 -162 -38q-72 -38 -96 -108l114 -71 q-28 -14 -64 -53q-34 -37 -34 -68v-418h-174z" />
<glyph unicode="&#xe0f;" horiz-adv-x="827" d="M0 0v80h82v330q0 35 25 69q26 36 59 49l-107 62q21 111 120 178q101 68 237 68q146 0 243 -74q97 -73 97 -199v-836h-228l-120 88l-119 -88h-207v178h88v-94h96l142 100l141 -100h115v738q0 102 -74 158q-67 49 -174 49q-89 0 -162 -38q-72 -38 -96 -108l114 -71 q-28 -14 -64 -53q-34 -37 -34 -68v-418h-174z" />
<glyph unicode="&#xe10;" horiz-adv-x="756" d="M16 414v73h84q68 0 80 -67l62 -340h112q103 0 172 74q86 92 86 276q0 166 -80 252q-69 74 -182 74q-79 0 -143 -43q-72 -45 -84 -119h-100q17 107 109 174q94 68 222 68q100 0 168 -37q56 30 60 82h118q-12 -93 -116 -125q121 -109 121 -324q0 -203 -91 -318 q-90 -114 -252 -114h-204l-64 348q-6 39 -18.5 52.5t-46.5 13.5h-13zM72 -169h143l131 92l131 -92h98v92h93v-176h-209l-113 80l-113 -80h-161v84z" />
<glyph unicode="&#xe11;" horiz-adv-x="815" d="M51 727v92h58l53 -41l55 41h72v-80q0 -90 -63 -144q-62 -54 -62 -116v-377l403 717h51q125 0 125 -119v-700h-92v688q0 53 -35 53l-419 -741h-125v508q0 69 62 119q63 49 63 84v16h-146z" />
<glyph unicode="&#xe12;" horiz-adv-x="1382" d="M51 401q0 188 102 307q104 119 269 115l125 -106l115 102h116v-528q0 -103 67 -163t173 -60q86 0 143 54q58 54 58 161v536h92v-561q0 -121 -76 -194t-201 -73q-172 0 -256 107v-98h-92v725l-139 -129l-158 141q-90 2 -164 -84q-80 -95 -80 -241q0 -166 93 -254 q79 -78 202 -78q14 0 28 1t28 3v-84q-17 -1 -34 -1h-34q-178 0 -278 111q-99 111 -99 291z" />
<glyph unicode="&#xe13;" horiz-adv-x="1350" d="M49 590q21 111 120 178q100 68 237 68q146 0 243 -74q96 -74 96 -199v-280q0 -215 201 -215q106 0 173 59q67 58 67 164v528h92v-819h-92v98q-83 -107 -256 -107q-127 0 -202 72t-75 195v291q0 103 -73 158q-67 49 -174 49q-45 0 -86.5 -9.5t-76 -28.5t-59.5 -46t-37 -62 l115 -71q-29 -14 -65 -53q-33 -38 -33 -68v-338h123v-80h-215v410q0 35 25 69q26 36 59 49z" />
<glyph unicode="&#xe14;" horiz-adv-x="829" d="M51 393q0 186 104 308q105 121 285 120l318 -2v-819h-92v737l-203 2q-138 2 -223 -82q-95 -90 -95 -256q0 -172 103 -256q83 -69 209 -61v-84q-173 -11 -289 95q-117 106 -117 298z" />
<glyph unicode="&#xe15;" horiz-adv-x="850" d="M51 401q0 188 102 307q104 119 269 115l125 -106l115 102h116v-819h-92v725l-139 -129l-158 141q-90 2 -164 -84q-80 -95 -80 -241q0 -166 93 -254q79 -78 202 -78q14 0 28 1t28 3v-84q-17 -1 -34 -1h-34q-178 0 -278 111q-99 111 -99 291z" />
<glyph unicode="&#xe16;" horiz-adv-x="817" d="M49 590q21 111 120 178q100 68 237 68q146 0 243 -74q96 -74 96 -199v-563h-92v549q0 103 -73 158q-67 49 -174 49q-45 0 -86.5 -9.5t-76 -28.5t-59.5 -46t-37 -62l115 -71q-29 -14 -65 -53q-33 -38 -33 -68v-338h123v-80h-215v410q0 35 25 69q26 36 59 49z" />
<glyph unicode="&#xe17;" horiz-adv-x="817" d="M72 0v819h92v-127q106 139 297 139q140 0 217 -81q67 -73 67 -199v-551h-92v535q0 217 -209 217q-111 0 -196 -77q-84 -77 -84 -167v-508h-92z" />
<glyph unicode="&#xe18;" horiz-adv-x="760" d="M55 608q0 104 88 165q88 63 224 63q144 0 236 -65q90 -64 104 -177h-101q-11 79 -77 120q-66 42 -162 42q-99 0 -160 -42q-60 -42 -60 -102q0 -81 144 -106l192 -35q66 -12 72 -14q143 -54 143 -199v-258h-637v369h93v-289h452v172q0 108 -143 143q-66 13 -132 25 l-132 22q-144 43 -144 166z" />
<glyph unicode="&#xe19;" horiz-adv-x="817" d="M72 268v551h28q64 0 64 -67v-467q0 -217 209 -217q113 0 198 79q82 73 82 164v508h92v-819h-92v127q-106 -136 -297 -136q-142 0 -215 79q-69 73 -69 198z" />
<glyph unicode="&#xe1a;" horiz-adv-x="817" d="M72 272v547h28q64 0 64 -67v-467q0 -110 72 -168q64 -54 170 -54q105 0 176 56q71 57 71 166v534h92v-547q0 -122 -83 -202q-94 -83 -256 -83q-161 0 -252 83q-82 79 -82 202z" />
<glyph unicode="&#xe1b;" horiz-adv-x="817" d="M72 272v547h28q64 0 64 -67v-467q0 -110 72 -168q64 -54 170 -54q105 0 176 56q71 57 71 166v739h92v-752q0 -122 -83 -202q-94 -83 -256 -83q-161 0 -252 83q-82 79 -82 202z" />
<glyph unicode="&#xe1c;" horiz-adv-x="954" d="M33 819h186v-74h-88l115 -600l198 674h70l199 -674l127 674h86l-158 -819h-90l-197 659h-2l-198 -659h-91z" />
<glyph unicode="&#xe1d;" horiz-adv-x="954" d="M33 819h186v-74h-88l115 -600l198 674h70l199 -674l166 879h86l-197 -1024h-90l-197 659h-2l-198 -659h-91z" />
<glyph unicode="&#xe1e;" horiz-adv-x="954" d="M33 819h86l127 -674l198 674h70l199 -674l127 674h86l-158 -819h-90l-197 659h-2l-198 -659h-91z" />
<glyph unicode="&#xe1f;" horiz-adv-x="954" d="M33 819h86l127 -674l198 674h70l199 -674l166 879h86l-197 -1024h-90l-197 659h-2l-198 -659h-91z" />
<glyph unicode="&#xe20;" horiz-adv-x="827" d="M0 0v80h82v330q0 35 25 69q26 36 59 49l-107 62q21 111 120 178q101 68 237 68q146 0 243 -74q97 -73 97 -199v-563h-92v549q0 102 -74 158q-67 49 -174 49q-89 0 -162 -38q-72 -38 -96 -108l114 -71q-28 -14 -64 -53q-34 -37 -34 -68v-418h-174z" />
<glyph unicode="&#xe21;" horiz-adv-x="817" d="M72 0v819h28q64 0 64 -67v-441q0 -91 82 -164q85 -79 198 -79q209 0 209 217v534h92v-551q0 -125 -67 -198q-76 -79 -217 -79q-191 0 -297 136v-127h-92z" />
<glyph unicode="&#xe22;" horiz-adv-x="809" d="M41 229q0 85 57 150q53 56 129 70v2q-68 5 -112 47q-52 46 -52 129q0 88 63 142q64 53 155 52l86 -2v-82l-29 2q-72 4 -121 -24q-55 -33 -55 -97q0 -129 205 -129v-81q-101 5 -166 -45q-64 -48 -64 -130q0 -157 242 -155l266 2v739h92v-819h-440q-63 0 -110.5 16t-80 46 t-49 72.5t-16.5 94.5z" />
<glyph unicode="&#xe23;" horiz-adv-x="770" d="M43 248h98q6 -100 95 -150q67 -37 157 -37q95 0 166 44q70 45 70 122q0 115 -150 148l-137 20l-137 21q-150 40 -150 180q0 105 91 172q92 68 227 68q141 0 237 -66q96 -64 107 -176h-94q-13 82 -93 127q-68 37 -157 37q-98 0 -162 -45t-64 -115q0 -93 150 -115 q136 -20 204 -31t70 -12q150 -50 150 -213q0 -59 -22.5 -104t-65.5 -75t-104 -45.5t-138 -15.5q-147 0 -239 62q-102 71 -109 199z" />
<glyph unicode="&#xe24;" horiz-adv-x="817" d="M49 590q21 111 120 178q100 68 237 68q146 0 243 -74q96 -74 96 -199v-806h-92v792q0 103 -73 158q-67 49 -174 49q-45 0 -86.5 -9.5t-76 -28.5t-59.5 -46t-37 -62l115 -71q-29 -14 -65 -53q-33 -38 -33 -68v-338h123v-80h-215v410q0 35 25 69q26 36 59 49z" />
<glyph unicode="&#xe25;" horiz-adv-x="811" d="M51 264q0 134 94 219q95 86 242 86q169 0 260 -86v90q0 92 -72 142q-64 43 -169 43q-89 0 -155 -42q-65 -42 -83 -112h-98q17 97 107 164q92 68 224 68q155 0 247 -69q91 -69 91 -183v-584h-92v360q-63 127 -258 127q-98 0 -170 -57q-78 -63 -78 -166q0 -100 66 -149 q55 -43 139 -43q33 0 68 8v-81q-22 -4 -42 -6t-40 -2q-134 0 -207 76q-74 77 -74 197z" />
<glyph unicode="&#xe26;" horiz-adv-x="827" d="M0 0v80h82v330q0 35 25 69q26 36 59 49l-107 62q21 111 120 178q101 68 237 68q146 0 243 -74q97 -73 97 -199v-806h-92v792q0 102 -74 158q-67 49 -174 49q-89 0 -162 -38q-72 -38 -96 -108l114 -71q-28 -14 -64 -53q-34 -37 -34 -68v-418h-174z" />
<glyph unicode="&#xe27;" horiz-adv-x="772" d="M43 229h104q14 -71 80 -114q61 -43 140 -43q251 0 251 338t-251 338q-80 0 -141 -46q-60 -45 -76 -112h-105q21 108 108 177t218 69q350 0 350 -426q0 -423 -350 -423q-134 0 -223 67q-89 68 -105 175z" />
<glyph unicode="&#xe28;" horiz-adv-x="817" d="M72 0v547q0 117 82 198q91 91 252 91q99 0 174 -35q47 30 47 80h118q-12 -80 -96 -123q96 -83 96 -211v-547h-92v535q0 109 -73 167q-68 54 -174 54t-170 -54q-72 -59 -72 -167v-95h213v-86h-213v-354h-92z" />
<glyph unicode="&#xe29;" horiz-adv-x="817" d="M72 272v547h92v-534q0 -110 72 -168q64 -54 170 -54q105 0 176 56q71 57 71 166v141q-18 -68 -88 -68q-39 0 -65.5 27t-26.5 66q0 19 7 36t19.5 29.5t29 19.5t36.5 7q72 0 88 -70v346h92v-547q0 -122 -83 -202q-94 -83 -256 -83q-161 0 -252 83q-82 79 -82 202z" />
<glyph unicode="&#xe2a;" horiz-adv-x="811" d="M51 264q0 134 94 219q95 86 242 86q169 0 260 -86v90q0 92 -72 142q-64 43 -169 43q-89 0 -155 -42q-65 -42 -83 -112h-98q17 97 107 164q92 68 224 68q106 0 181 -31q47 24 47 76h119q-14 -86 -95 -117q86 -71 86 -180v-584h-92v360q-63 127 -258 127q-98 0 -170 -57 q-78 -63 -78 -166q0 -100 66 -149q55 -43 139 -43q33 0 68 8v-81q-22 -4 -42 -6t-40 -2q-134 0 -207 76q-74 77 -74 197z" />
<glyph unicode="&#xe2b;" horiz-adv-x="817" d="M72 0v819h92v-258q89 141 239 174h-127v84h469v-84h-213q213 -39 213 -274v-461h-92v444q0 218 -194 218q-113 0 -204 -102q-91 -100 -91 -195v-365h-92z" />
<glyph unicode="&#xe2c;" horiz-adv-x="954" d="M33 819h86l125 -727l200 727h70l201 -727l90 526q4 19 4 39q0 106 -115 134v59q82 0 132 51q51 51 46 123h89q7 -76 -40 -137q-47 -60 -122 -68v-2q98 -33 98 -141q0 -6 -0.5 -12.5t-1.5 -14.5l-111 -649h-120l-183 659h-2l-184 -659h-121z" />
<glyph unicode="&#xe2d;" horiz-adv-x="887" d="M51 412q0 6 0.5 13.5t1.5 16.5v23h385v-86h-284q5 -149 98 -234q82 -73 192 -73q121 0 199 75q92 89 92 265q0 174 -98 264q-78 72 -193 72q-44 0 -85 -12t-75.5 -35.5t-61.5 -56.5t-42 -75l-96 29q38 108 133 172q96 66 227 66q177 0 284 -116q108 -116 108 -308 q0 -193 -107 -309t-285 -116t-286 116q-107 116 -107 309z" />
<glyph unicode="&#xe2e;" horiz-adv-x="887" d="M51 412q0 6 0.5 13.5t1.5 16.5v23h385v-86h-284q5 -149 98 -234q82 -73 192 -73q121 0 199 75q92 89 92 265q0 174 -98 264q-78 72 -193 72q-44 0 -85 -12t-75.5 -35.5t-61.5 -56.5t-42 -75l-96 29q38 108 133 172q96 66 227 66q91 0 168 -33q43 31 43 78h119 q-12 -80 -92 -119q154 -115 154 -350q0 -193 -107 -309t-285 -116t-286 116q-107 116 -107 309z" />
<glyph unicode="&#xe2f;" horiz-adv-x="762" d="M51 684q0 58 41 99q40 40 103 38l55 -2v-78l-21 2q-16 3 -31 -1.5t-27 -13t-19 -21t-7 -25.5q0 -98 150 -98q94 0 180 63q96 67 117 172h98v-819h-92v674q-123 -168 -332 -168q-49 0 -89 13t-68 36t-43 56t-15 73z" />
<glyph unicode="&#xe30;" horiz-adv-x="487" d="M72 102v166h92v-82h252v-84h-344zM72 551v166h92v-82h252v-84h-344z" />
<glyph unicode="&#xe31;" d="M-399 922v157h92v-75h489v-82h-581z" />
<glyph unicode="&#xe32;" horiz-adv-x="457" d="M31 733v86h69q285 0 285 -315v-504h-92v487q0 123 -43 181q-47 65 -160 65h-59z" />
<glyph unicode="&#xe33;" horiz-adv-x="457" d="M-205 1012q0 80 92 80q90 0 90 -80t-90 -80q-92 0 -92 80zM31 733v86h69q285 0 285 -315v-504h-92v487q0 123 -43 181q-47 65 -160 65h-59z" />
<glyph unicode="&#xe34;" d="M-727 922v82h659v-23q0 -59 -88 -59h-571z" />
<glyph unicode="&#xe35;" d="M-727 922v82h567v102h92v-184h-659z" />
<glyph unicode="&#xe36;" d="M-727 922v82h506q5 98 108 98t103 -90q0 -18 -7.5 -34t-21.5 -28.5t-33 -20t-41 -7.5h-614z" />
<glyph unicode="&#xe37;" d="M-727 922v82h414v102h92v-102h61v102h92v-184h-659z" />
<glyph unicode="&#xe38;" d="M-260 -57h192v-246h-92v160h-100v86z" />
<glyph unicode="&#xe39;" d="M-449 -57h136v-82q0 -70 75 -70q78 0 78 70v82h92v-82q0 -80 -41 -112t-129 -32q-168 0 -168 129v21h-43v76z" />
<glyph unicode="&#xe3a;" d="M-188 -127q0 70 75 70q76 0 76 -70t-76 -70q-75 0 -75 70z" />
<glyph unicode="&#xe3f;" horiz-adv-x="901" d="M98 0v965h324v127h51v-127h33q309 0 309 -236q0 -78 -47 -140q-45 -60 -121 -77v-2q93 -12 149 -77t56 -159q0 -274 -346 -274h-33v-131h-51v131h-324zM188 78h234v385h-234v-385zM188 543h234v344h-234v-344zM473 78h33q254 0 254 198q0 187 -254 187h-33v-385zM473 543 h33q106 0 161.5 44.5t55.5 119.5q0 180 -217 180h-33v-344z" />
<glyph unicode="&#xe40;" horiz-adv-x="317" d="M113 0v819h92v-819h-92z" />
<glyph unicode="&#xe41;" horiz-adv-x="512" d="M113 0v819h92v-819h-92zM307 0v819h92v-819h-92z" />
<glyph unicode="&#xe42;" horiz-adv-x="358" d="M57 1098q0 119 150 119q39 0 99 -9q31 -4 56.5 -6t47.5 -2q47 0 79 6v-80q-24 -6 -63 -6q-22 0 -50.5 2t-63.5 6q-71 9 -93 9q-69 0 -69 -47q0 -20 37 -60q38 -41 38 -86v-944h-92v913q0 44 -38 91t-38 94z" />
<glyph unicode="&#xe43;" horiz-adv-x="358" d="M-83 1108q0 70 55 116t141 46q195 0 206 -129q7 -70 -44 -121q-50 -52 -50 -94v-926h-92v942q0 56 48 100q48 43 48 72q0 84 -114 84q-23 0 -43 -7t-36 -19.5t-25 -31t-9 -40.5q0 -5 0.5 -10.5t1.5 -10.5h-85q-1 8 -1.5 15t-0.5 14z" />
<glyph unicode="&#xe44;" horiz-adv-x="358" d="M-128 1126v80q33 -6 80 -6q22 0 47.5 2t54.5 6q58 9 98 9q149 0 149 -111q0 -46 -38 -96t-38 -97v-913h-92v934q0 46 38 92t38 64q0 47 -70 47q-22 0 -92 -9q-35 -4 -62.5 -6t-49.5 -2q-38 0 -63 6z" />
<glyph unicode="&#xe45;" horiz-adv-x="539" d="M31 733v86h141q142 0 221 -94q74 -86 74 -229v-738h-92v715q0 260 -221 260h-123z" />
<glyph unicode="&#xe46;" horiz-adv-x="772" d="M51 625q0 82 48 138t137 56h65l135 -121l129 121h135v-1061h-92v990l-172 -168l-166 151q-125 14 -125 -104q0 -111 125 -97v-86q-20 -4 -45 -4q-174 0 -174 185z" />
<glyph unicode="&#xe47;" d="M-672 922v94q0 166 223 166h342v-78h-344q-129 0 -129 -82v-21h136l104 62l104 -62h129v-79h-145l-88 59l-92 -59h-240z" />
<glyph unicode="&#xe48;" d="M-160 1167v185h92v-185h-92z" />
<glyph unicode="&#xe49;" d="M-334 1274v78h57q97 0 97 -90v-21h284v-74h-376v58q0 49 -50 49h-12z" />
<glyph unicode="&#xe4a;" d="M-373 1167v60q0 121 123 121h23l71 -48l72 48h23q118 0 118 -107h95v-74h-175v58q0 55 -43 51l-90 -64l-90 64q-45 4 -45 -51v-58h-82z" />
<glyph unicode="&#xe4b;" d="M-250 1255v54h94v90h84v-90h92v-54h-92v-88h-84v88h-94z" />
<glyph unicode="&#xe4c;" d="M-246 1085v39q0 119 144 119h100v-69h-76q-74 0 -74 -66v-23h-94z" />
<glyph unicode="&#xe4d;" d="M-205 1012q0 80 92 80q90 0 90 -80t-90 -80q-92 0 -92 80z" />
<glyph unicode="&#xe4e;" d="M-452 1133q0 42 24 75.5t66 53.5q34 21 82 24q-43 21 -43 74q0 21 9.5 42.5t26.5 41t40.5 35.5t50.5 26q54 23 118 28t133 5h25v-100q-26 2 -46 3t-34 1q-44 0 -82.5 -5t-67 -15.5t-45.5 -26.5t-17 -37q0 -29 29 -35t92 -6v-94q-20 2 -35.5 3t-28.5 1q-40 0 -74 -6 t-59.5 -16.5t-40 -26t-14.5 -33.5q0 -29 49 -29q31 0 58.5 9.5t58.5 23.5l49 -82q-35 -19 -80 -33t-90 -14q-6 2 -9 2h-7h-11q-57 6 -92 36t-35 75z" />
<glyph unicode="&#xe4f;" horiz-adv-x="983" d="M72 410q0 174 122 296q123 123 298 123q174 0 296 -123q123 -122 123 -296t-123 -295q-121 -121 -296 -121q-176 0 -298 121q-122 122 -122 295zM133 410q0 -148 105 -254q106 -105 254 -105q147 0 252 105q106 106 106 254q0 147 -106 252q-105 106 -252 106 q-148 0 -254 -106q-105 -105 -105 -252zM236 410q0 105 74 181q75 75 182 75q106 0 181 -75t75 -181q0 -107 -75 -182q-76 -74 -181 -74q-106 0 -182 74q-74 76 -74 182z" />
<glyph unicode="&#xe50;" horiz-adv-x="756" d="M51 309q0 139 84 228q84 88 242 88q157 0 246 -90q82 -83 82 -226q0 -142 -82 -227q-88 -88 -246 -88q-159 0 -244 88q-82 85 -82 227zM147 309q0 -107 63 -171q64 -64 167 -64t168 65q65 67 65 170q0 107 -65 169q-65 63 -168 63q-105 0 -168 -63q-62 -62 -62 -169z" />
<glyph unicode="&#xe51;" horiz-adv-x="754" d="M51 387q0 100 87 169t222 69q161 0 253 -84t89 -230q-5 -152 -113 -237q-108 -86 -282 -90q-131 -2 -198 16l-17 76q95 -25 197 -19q152 9 237 82q80 68 80 174q0 110 -69 172q-68 56 -177 56q-97 0 -155 -45t-58 -109q0 -137 179 -119v-80l-15 -4q-12 -1 -24 -1.5 t-23 -0.5q-213 0 -213 205z" />
<glyph unicode="&#xe52;" horiz-adv-x="958" d="M4 786l82 43q78 -30 78 -131v-620h631v444l-160 -133l-160 125q-106 0 -106 -143q0 -129 112 -119v-78q-200 -20 -207 182q-6 236 170 236h64l127 -96l129 96h123v-592h-815v666q0 88 -68 120z" />
<glyph unicode="&#xe53;" horiz-adv-x="766" d="M51 297q0 149 64 240q58 84 153 84h29l131 -119l131 112h135v-614h-92v543l-174 -160l-160 147q-32 0 -67 -41q-54 -63 -54 -190q0 -138 52 -184q37 -34 125 -33v-82h-31q-242 -17 -242 297z" />
<glyph unicode="&#xe54;" horiz-adv-x="799" d="M51 276q0 145 85.5 223.5t244.5 78.5h268v241h99v-323h-312q-286 0 -286 -211q0 -203 266 -203q14 0 29 0.5t32 1.5q-67 16 -67 84q0 37 26.5 63.5t69.5 26.5t69.5 -26.5t26.5 -63.5q0 -67 -65 -84h192v-84h-367q-140 0 -219 66q-92 71 -92 210z" />
<glyph unicode="&#xe55;" horiz-adv-x="809" d="M51 276q0 276 285 299q-47 26 -47 76q0 19 9 36t24.5 29.5t37 19.5t46.5 7q24 0 45.5 -7t37 -19.5t24.5 -29.5t9 -36q0 -49 -43 -73h191v241h98v-323h-332q-286 0 -286 -211q0 -203 266 -203q14 0 29 0.5t32 1.5q-67 16 -67 84q0 37 26.5 63.5t69.5 26.5t69.5 -26.5 t26.5 -63.5q0 -67 -65 -84h192v-84h-367q-140 0 -219 66q-92 71 -92 210z" />
<glyph unicode="&#xe56;" horiz-adv-x="752" d="M6 780l80 49q80 -36 80 -120v-215q70 100 237 100q297 0 297 -299q0 -301 -325 -301q-286 0 -299 213h104q13 -133 201 -133q217 0 217 221q0 215 -217 215q-152 0 -205 -104h-104v262q0 77 -66 112z" />
<glyph unicode="&#xe57;" horiz-adv-x="1024" d="M51 297q0 149 64 240q58 84 153 84h29l131 -119l131 112h135v-538q100 -2 137 41q35 38 35 123v446q0 91 82 143l68 -43q-64 -51 -64 -120v-459q0 -209 -219 -207h-131v543l-174 -160l-160 147q-32 0 -67 -41q-54 -63 -54 -190q0 -138 52 -184q37 -34 125 -33v-82h-31 q-242 -17 -242 297z" />
<glyph unicode="&#xe58;" horiz-adv-x="772" d="M51 285q0 293 283 293h262v241h98v-323h-301q-66 0 -112.5 -11.5t-76 -37t-43.5 -65.5t-14 -97q0 -201 101 -201l172 156l176 -154v168h98v-254h-129l-147 133l-139 -133h-62q-166 -4 -166 285z" />
<glyph unicode="&#xe59;" horiz-adv-x="868" d="M51 287q0 293 240 293h139l78 -187l41 119q23 68 106 68h72v137q0 77 74 112l80 -51q-54 -35 -54 -90v-192h-131q-57 0 -71 -47l-35 -113q-10 -30 -10 -84q-2 -57 8 -82l65 -170h-90l-192 494q-14 1 -25.5 1.5t-21.5 0.5q-177 0 -177 -207q0 -59 9 -98.5t27 -63.5 t46.5 -34.5t67.5 -10.5q10 0 21.5 0.5t25.5 1.5v-84h-51q-242 -11 -242 287z" />
<glyph unicode="&#xe5a;" horiz-adv-x="1036" d="M61 688q0 28 11.5 53.5t32 45t48.5 31t62 11.5q69 0 111.5 -37.5t42.5 -103.5q0 -39 -23 -74q44 6 83 23t70 43.5t52.5 61.5t30.5 77h51q35 0 51 -16q18 -12 18 -51v-752h-118v616q-26 -23 -59.5 -43.5t-71.5 -37.5q-81 -29 -162 -29q-49 0 -91 13t-73 37t-48.5 57.5 t-17.5 74.5zM152 688q0 -29 15.5 -42.5t47.5 -18.5q64 0 64 61q0 25 -17.5 43.5t-46.5 18.5q-63 0 -63 -62zM805 0v819h119v-819h-119z" />
<glyph unicode="&#xe5b;" horiz-adv-x="1393" d="M61 414q0 149 70 243q35 51 80.5 75t99.5 24q43 0 82 -18.5t68 -52t46 -79.5t17 -100q0 -44 -10 -79t-28.5 -60t-43.5 -38.5t-55 -13.5q-24 0 -46.5 10.5t-39.5 28.5t-27 42.5t-10 52.5q0 27 10 51t27 43t38.5 30t45.5 11l21 -2q-35 80 -93 80q-32 0 -59.5 -19t-47.5 -53 t-32 -81t-12 -103t13.5 -100t37.5 -74.5t57.5 -47t73.5 -16.5q47 0 88.5 24.5t74.5 69.5t57 109.5t36 144.5q8 50 19.5 66t37.5 16q10 0 22.5 -12t25.5 -32t26 -47t25 -58l12 73q15 58 41 58q19 0 45.5 -32.5t46.5 -86.5q16 82 45 82q23 0 46.5 -29.5t47.5 -77.5 q13 38 24.5 58t31.5 20q14 0 30.5 -18.5t30.5 -44.5q16 33 47 28l111 -14q18 0 35.5 -10t17.5 -21q0 -12 -17.5 -23.5t-37.5 -13.5l-103 -10q-6 -20 -19 -38.5t-30 -18.5q-15 0 -31 22q-5 5 -11 17t-17 30q-11 -37 -27 -64.5t-33 -27.5q-14 0 -31 28.5t-40 76.5 q-8 -29 -15 -50.5t-12 -33.5q-18 -41 -39 -41q-19 0 -47 63q-8 17 -14.5 35t-14.5 35q-6 -28 -16 -56t-22 -50.5t-24 -37t-22 -14.5q-34 0 -45 35q-5 19 -6.5 31.5t-3.5 23.5q-3 22 -18 62q-17 -69 -45.5 -128t-65.5 -98q-100 -112 -227 -112q-62 0 -112 24.5t-86 68.5 t-55.5 106.5t-19.5 138.5zM336 449q0 -26 14.5 -43t34.5 -17q49 0 49 60q0 61 -49 61q-19 0 -34 -17.5t-15 -43.5z" />
<glyph unicode="&#x2000;" horiz-adv-x="799" />
<glyph unicode="&#x2001;" horiz-adv-x="1599" />
<glyph unicode="&#x2002;" horiz-adv-x="799" />
<glyph unicode="&#x2003;" horiz-adv-x="1599" />
<glyph unicode="&#x2004;" horiz-adv-x="533" />
<glyph unicode="&#x2005;" horiz-adv-x="399" />
<glyph unicode="&#x2006;" horiz-adv-x="266" />
<glyph unicode="&#x2007;" horiz-adv-x="266" />
<glyph unicode="&#x2008;" horiz-adv-x="199" />
<glyph unicode="&#x2009;" horiz-adv-x="319" />
<glyph unicode="&#x200a;" horiz-adv-x="88" />
<glyph unicode="&#x200c;" />
<glyph unicode="&#x200d;" />
<glyph unicode="&#x2010;" horiz-adv-x="500" d="M82 332v80h338v-80h-338z" />
<glyph unicode="&#x2011;" horiz-adv-x="500" d="M82 332v80h338v-80h-338z" />
<glyph unicode="&#x2012;" horiz-adv-x="500" d="M82 332v80h338v-80h-338z" />
<glyph unicode="&#x2013;" horiz-adv-x="811" d="M66 303v72h679v-72h-679z" />
<glyph unicode="&#x2014;" horiz-adv-x="1622" d="M66 303v72h1490v-72h-1490z" />
<glyph unicode="&#x2018;" horiz-adv-x="375" d="M123 608v158q0 36 9 68.5t26 59.5t41.5 46.5t56.5 28.5v-64q-35 -12 -54 -55q-18 -42 -16 -84h64v-158h-127z" />
<glyph unicode="&#x2019;" horiz-adv-x="375" d="M117 604v64q35 12 53 55q18 42 16 84h-63v158h127v-158q0 -73 -33 -125q-38 -59 -100 -78z" />
<glyph unicode="&#x201c;" horiz-adv-x="592" d="M123 608v158q0 36 9 68.5t26 59.5t41.5 46.5t56.5 28.5v-64q-35 -12 -54 -55q-18 -42 -16 -84h64v-158h-127zM342 608v158q0 36 9 68.5t26 59.5t41.5 46.5t56.5 28.5v-64q-35 -12 -54 -55q-18 -44 -15 -84h63v-158h-127z" />
<glyph unicode="&#x201d;" horiz-adv-x="592" d="M117 604v64q35 12 53 55q18 42 16 84h-63v158h127v-158q0 -73 -33 -125q-38 -59 -100 -78zM336 604v64q35 12 53 55q19 41 17 84h-64v158h127v-158q0 -73 -33 -125q-38 -59 -100 -78z" />
<glyph unicode="&#x2022;" horiz-adv-x="758" d="M72 410q0 127 90 217t217 90t217 -90t90 -217t-90 -218q-90 -90 -217 -90t-217 90q-90 91 -90 218z" />
<glyph unicode="&#x2026;" horiz-adv-x="1352" d="M168 0v143h115v-143h-115zM618 0v143h115v-143h-115zM1067 0v143h115v-143h-115z" />
<glyph unicode="&#x202f;" horiz-adv-x="319" />
<glyph unicode="&#x205f;" horiz-adv-x="399" />
<glyph unicode="&#x25fc;" horiz-adv-x="700" d="M0 0v700h700v-700h-700z" />
<glyph unicode="&#xe000;" horiz-adv-x="700" d="M0 0v700h700v-700h-700z" />
<glyph unicode="&#xf700;" horiz-adv-x="756" d="M16 414v73h84q68 0 80 -67l62 -340h112q103 0 172 74q86 92 86 276q0 166 -80 252q-69 74 -182 74q-79 0 -143 -43q-72 -45 -84 -119h-100q17 107 109 174q94 68 222 68q100 0 168 -37q56 30 60 82h118q-12 -93 -116 -125q121 -109 121 -324q0 -203 -91 -318 q-90 -114 -252 -114h-204l-64 348q-6 39 -18.5 52.5t-46.5 13.5h-13z" />
<glyph unicode="&#xf701;" d="M-840 922v82h578v-23q0 -59 -88 -59h-490z" />
<glyph unicode="&#xf702;" d="M-840 922v82h486v102h92v-184h-578z" />
<glyph unicode="&#xf703;" d="M-840 922v82h424q5 98 109 98q102 0 102 -90q0 -18 -7.5 -34t-21 -28.5t-32.5 -20t-41 -7.5h-533z" />
<glyph unicode="&#xf704;" d="M-840 922v82h332v102h92v-102h62v102h92v-184h-578z" />
<glyph unicode="&#xf705;" d="M-401 922v245h92v-245h-92z" />
<glyph unicode="&#xf706;" d="M-530 1040v86h65q107 0 107 -100v-22h358v-82h-461v63q0 55 -55 55h-14z" />
<glyph unicode="&#xf707;" d="M-741 922v65q0 135 137 135h24l80 -53l80 53h25q60 0 98.5 -31.5t38.5 -86.5h258v-82h-350v63q0 61 -49 57l-101 -71l-100 71q-49 4 -49 -57v-63h-92z" />
<glyph unicode="&#xf708;" d="M-535 1018v61h107v99h92v-99h109v-61h-109v-96h-92v96h-107z" />
<glyph unicode="&#xf709;" d="M-477 922v41q0 124 151 124h105v-71h-80q-78 0 -78 -70v-24h-98z" />
<glyph unicode="&#xf70a;" d="M-160 922v245h92v-245h-92z" />
<glyph unicode="&#xf70b;" d="M-412 1040v86h66q106 0 106 -100v-22h316v-82h-418v63q0 55 -55 55h-15z" />
<glyph unicode="&#xf70c;" d="M-647 922v65q0 135 137 135h25l79 -53l80 53h25q60 0 98.5 -31.5t38.5 -86.5h105v-82h-197v63q0 61 -49 57l-101 -71l-100 71q-49 4 -49 -57v-63h-92z" />
<glyph unicode="&#xf70d;" d="M-375 1018v61h107v99h92v-99h108v-61h-108v-96h-92v96h-107z" />
<glyph unicode="&#xf70e;" d="M-272 922v41q0 124 151 124h105v-71h-80q-78 0 -78 -70v-24h-98z" />
<glyph unicode="&#xf70f;" horiz-adv-x="1329" d="M49 590q21 111 120 178q100 68 237 68q146 0 243 -74q96 -74 96 -199v-289q0 -211 207 -211q213 0 213 211v545h92v-557q0 -122 -71 -196q-80 -78 -234 -78q-153 0 -229 78q-70 70 -70 196v287q0 103 -73 158q-67 49 -174 49q-45 0 -86.5 -9.5t-76 -28.5t-59.5 -46 t-37 -62l115 -71q-29 -14 -65 -53q-33 -38 -33 -68v-338h123v-80h-215v410q0 35 25 69q26 36 59 49z" />
<glyph unicode="&#xf710;" d="M-584 922v157h92v-75h492v-82h-584z" />
<glyph unicode="&#xf711;" d="M-399 1012q0 80 92 80q90 0 90 -80t-90 -80q-92 0 -92 80z" />
<glyph unicode="&#xf712;" d="M-791 922v94q0 166 224 166h342v-78h-344q-129 0 -129 -82v-21h135l104 62l105 -62h129v-79h-146l-88 59l-92 -59h-240z" />
<glyph unicode="&#xf713;" d="M-354 1167v185h92v-185h-92z" />
<glyph unicode="&#xf714;" d="M-502 1274v78h58q96 0 96 -90v-21h289v-74h-381v58q0 49 -50 49h-12z" />
<glyph unicode="&#xf715;" d="M-553 1167v60q0 121 123 121h22l72 -48l72 48h22q123 0 123 -107h94v-74h-178v58q0 55 -43 51l-90 -64l-90 64q-45 4 -45 -51v-58h-82z" />
<glyph unicode="&#xf716;" d="M-444 1255v54h94v90h84v-90h96v-54h-96v-88h-84v88h-94z" />
<glyph unicode="&#xf717;" d="M-434 1085v39q0 119 143 119h100v-69h-75q-74 0 -74 -66v-23h-94z" />
<glyph unicode="&#xf718;" d="M-260 -324h192v-245h-92v159h-100v86z" />
<glyph unicode="&#xf719;" d="M-449 -324h136v-82q0 -69 75 -69q78 0 78 69v82h92v-82q0 -79 -41 -111t-129 -32q-168 0 -168 129v21h-43v75z" />
<glyph unicode="&#xf71a;" d="M-219 -393q0 69 76 69q75 0 75 -69q0 -70 -75 -70q-76 0 -76 70z" />
<glyph unicode="&#xf71b;" d="M-477 -2v1210h477v-1210h-477z" />
<glyph unicode="&#xf71c;" d="M-840 922v82h578v-23q0 -59 -88 -59h-490z" />
<glyph unicode="&#xf71d;" d="M-840 922v82h486v102h92v-184h-578z" />
<glyph horiz-adv-x="457" d="M-399 1012q0 80 92 80q90 0 90 -80t-90 -80q-92 0 -92 80zM31 733v86h69q285 0 285 -315v-504h-92v487q0 123 -43 181q-47 65 -160 65h-59z" />
<glyph d="M-541 1133q0 42 24 75.5t66 53.5q34 21 82 24q-43 21 -43 74q0 21 9.5 42.5t26.5 41t40.5 35.5t50.5 26q54 23 118 28t133 5h25v-100q-26 2 -46 3t-34 1q-44 0 -82.5 -5t-67 -15.5t-45.5 -26.5t-17 -37q0 -29 29 -35t92 -6v-94q-20 2 -35.5 3t-28.5 1q-40 0 -74 -6 t-59.5 -16.5t-40 -26t-14.5 -33.5q0 -29 49 -29q31 0 58.5 9.5t58.5 23.5l49 -82q-35 -19 -80 -33t-90 -14q-6 2 -9 2h-7h-11q-57 6 -92 36t-35 75z" />
</font>
</defs>
</svg>
